<?xml version="1.0" standalone="no"?>
<!DOCTYPE svg PUBLIC "-//W3C//DTD SVG 20010904//EN"
 "http://www.w3.org/TR/2001/REC-SVG-20010904/DTD/svg10.dtd">
<svg version="1.0" xmlns="http://www.w3.org/2000/svg"
 width="1916.000000pt" height="695.000000pt" viewBox="0 0 1916.000000 695.000000"
 preserveAspectRatio="xMidYMid meet">

<g transform="translate(0.000000,695.000000) scale(0.100000,-0.100000)"
fill="#000000" stroke="none">
<path d="M9360 6679 c-202 -39 -357 -222 -460 -544 -41 -127 -49 -163 -59
-257 -25 -227 -5 -375 72 -526 33 -66 119 -164 172 -198 111 -69 280 -119 405
-117 75 0 223 32 243 52 6 6 17 11 24 11 14 0 42 18 130 83 56 42 153 160 200
247 87 158 144 334 178 545 13 89 14 109 1 175 -8 42 -22 89 -30 105 -9 17
-16 35 -16 41 0 7 -31 46 -70 87 -97 103 -152 130 -263 125 l-82 -3 -10 32
c-8 29 -22 39 -110 82 -129 65 -217 81 -325 60z m190 -84 c14 -8 32 -17 40
-21 73 -31 118 -64 86 -64 -9 0 -24 9 -33 19 -17 21 -43 18 -43 -5 0 -8 -9
-14 -21 -14 -18 0 -20 -4 -14 -30 6 -26 4 -30 -13 -30 -11 0 -22 6 -25 13 -2
6 -8 9 -12 5 -4 -4 -2 -14 4 -22 16 -19 6 -36 -21 -36 -17 0 -19 -4 -14 -25 6
-23 5 -24 -13 -13 -30 19 -51 -4 -28 -30 22 -24 13 -32 -35 -32 -27 0 -38 -4
-38 -15 0 -9 9 -15 24 -15 37 0 41 -18 10 -47 l-28 -25 38 -13 c72 -25 70 -41
-4 -47 -53 -4 -47 -32 8 -36 51 -4 55 -17 8 -26 -19 -4 -39 -13 -46 -21 -10
-13 -8 -15 11 -15 13 0 31 -4 39 -10 23 -15 -14 -24 -40 -10 -18 9 -25 8 -41
-6 -24 -22 -24 -34 0 -34 31 0 51 -11 51 -27 0 -12 -8 -14 -37 -10 -20 4 -40
12 -44 19 -7 10 -11 10 -21 0 -9 -9 -9 -12 0 -12 7 0 12 -9 12 -19 0 -12 9
-21 25 -25 14 -4 25 -11 25 -16 0 -15 -32 -12 -51 6 -11 10 -25 13 -38 9 -24
-7 -28 -25 -7 -25 13 0 51 -48 44 -55 -2 -2 -22 2 -45 8 -23 6 -45 8 -49 4 -8
-7 50 -67 65 -67 6 0 11 -4 11 -10 0 -13 -23 -13 -37 1 -6 6 -23 9 -39 6 -26
-4 -27 -5 -8 -11 27 -9 67 -63 54 -71 -5 -3 -24 1 -41 10 -23 12 -34 14 -42 6
-9 -9 -6 -13 11 -17 12 -4 22 -12 22 -19 0 -7 7 -15 15 -19 8 -3 15 -10 15
-16 0 -13 -37 -13 -45 0 -7 12 -55 14 -55 2 0 -4 13 -19 28 -32 48 -43 72 -92
72 -147 0 -88 54 -176 125 -203 17 -7 61 -17 98 -24 37 -6 68 -16 68 -21 0
-29 -193 -28 -253 2 -95 46 -116 58 -149 84 -70 55 -170 229 -192 336 -14 64
5 357 28 448 39 152 65 220 118 310 34 56 102 132 132 146 11 6 43 23 70 39
45 26 59 29 145 29 65 1 103 -4 120 -14z m345 -165 c3 -5 -3 -10 -15 -10 -12
0 -18 5 -15 10 3 6 10 10 15 10 5 0 12 -4 15 -10z m109 -44 c60 -29 87 -53
123 -109 85 -135 64 -397 -49 -597 -4 -8 -12 -25 -18 -37 -15 -35 -144 -161
-181 -178 -19 -8 -41 -20 -49 -25 -59 -37 -207 -80 -273 -80 -59 0 -110 35
-127 85 -20 62 21 97 133 112 32 4 59 13 60 18 1 6 -26 14 -61 18 -35 5 -61
12 -58 15 12 11 82 32 111 32 17 0 25 4 19 8 -6 4 -16 17 -23 30 -11 20 -9 23
14 32 15 6 35 10 46 10 25 0 25 27 -1 35 -33 10 -23 22 25 29 52 8 66 23 30
32 -31 8 -33 34 -2 34 32 0 67 11 67 20 0 5 -13 11 -30 15 -16 4 -30 10 -30
14 0 12 56 50 84 57 33 8 24 24 -15 24 -38 0 -38 22 1 37 40 15 38 33 -4 33
-45 0 -54 15 -19 32 34 16 42 38 14 38 -12 0 -21 3 -21 8 0 11 41 45 70 58
l25 10 -29 15 c-16 8 -36 24 -44 37 -14 21 -13 22 22 22 29 0 36 4 36 20 0 31
-3 35 -27 32 -12 -1 -24 2 -28 8 -3 5 -1 10 4 10 6 0 20 9 31 20 11 11 31 20
44 20 13 0 29 7 36 15 17 21 35 19 94 -9z"/>
<path d="M1235 5709 c-4 -6 -5 -13 -2 -16 7 -7 27 6 27 18 0 12 -17 12 -25 -2z"/>
<path d="M4411 5695 c-13 -14 -21 -29 -17 -32 3 -4 12 1 19 9 6 9 21 18 31 20
25 4 33 28 9 28 -10 0 -29 -12 -42 -25z"/>
<path d="M14627 5713 c-15 -14 -6 -23 22 -23 16 0 31 -6 35 -15 3 -8 13 -15
23 -15 14 0 9 8 -17 30 -35 30 -51 36 -63 23z"/>
<path d="M17117 5713 c-12 -11 -8 -23 8 -23 8 0 15 7 15 15 0 16 -12 20 -23 8z"/>
<path d="M17846 5711 c-4 -6 0 -14 8 -17 11 -4 16 -19 16 -50 0 -24 5 -44 10
-44 6 0 10 17 10 38 0 40 -32 93 -44 73z"/>
<path d="M1313 5688 c-36 -22 -46 -53 -14 -43 12 3 21 0 25 -10 3 -8 12 -15
21 -15 11 0 15 11 15 45 0 50 -2 51 -47 23z"/>
<path d="M1960 5700 c0 -5 7 -10 15 -10 8 0 15 5 15 10 0 6 -7 10 -15 10 -8 0
-15 -4 -15 -10z"/>
<path d="M2057 5704 c-4 -4 -7 -31 -7 -60 0 -48 -23 -114 -42 -122 -5 -2 -8
-11 -8 -19 0 -11 6 -9 25 8 13 13 25 28 25 32 0 5 9 20 20 34 12 15 20 41 20
62 0 38 -20 78 -33 65z"/>
<path d="M17747 5703 c-14 -14 -7 -76 11 -89 26 -20 33 -17 26 11 -5 21 -3 25
14 25 35 0 34 17 -4 39 -40 24 -38 23 -47 14z"/>
<path d="M14554 5684 c3 -9 6 -18 6 -20 0 -9 39 -3 46 7 8 13 -13 29 -40 29
-12 0 -16 -5 -12 -16z"/>
<path d="M17020 5679 c-23 -41 5 -116 62 -171 15 -15 28 -31 28 -37 0 -5 5
-11 12 -13 22 -8 -4 -29 -30 -27 -15 2 -36 -2 -47 -9 l-20 -11 20 -1 c34 -1
188 -55 193 -68 6 -18 -42 -32 -116 -33 -37 0 -61 -3 -54 -6 18 -7 16 -89 -3
-97 -16 -6 -21 -56 -5 -56 5 0 12 11 16 24 3 14 31 48 62 76 43 39 61 50 78
46 16 -4 32 2 51 18 l28 24 -18 36 c-9 20 -23 36 -31 36 -11 0 -13 9 -9 38 7
47 18 59 37 43 22 -18 39 -5 26 20 -12 21 -52 26 -68 6 -6 -6 -12 -28 -14 -47
-2 -21 -9 -36 -18 -38 -18 -3 -90 57 -90 75 0 7 -6 16 -12 20 -24 15 -48 75
-48 118 0 50 -14 65 -30 34z"/>
<path d="M4495 5680 c-8 -13 20 -24 41 -16 20 8 9 26 -16 26 -10 0 -22 -5 -25
-10z"/>
<path d="M1210 5641 c0 -22 5 -43 10 -46 6 -4 10 12 10 39 0 25 -4 46 -10 46
-5 0 -10 -18 -10 -39z"/>
<path d="M1972 5667 c-19 -11 -21 -15 -9 -31 14 -19 48 -19 54 -1 2 6 -2 18
-9 27 -11 14 -17 15 -36 5z"/>
<path d="M17085 5650 c-11 -18 13 -36 31 -25 9 6 16 15 17 20 3 14 -40 18 -48
5z"/>
<path d="M4460 5640 c0 -5 5 -10 10 -10 6 0 10 5 10 10 0 6 -4 10 -10 10 -5 0
-10 -4 -10 -10z"/>
<path d="M4621 5641 c-1 -8 -9 -20 -18 -27 -14 -10 -15 -15 -6 -25 10 -10 15
-6 23 16 6 15 9 33 6 39 -2 6 -5 5 -5 -3z"/>
<path d="M14630 5640 c0 -5 5 -10 10 -10 6 0 10 5 10 10 0 6 -4 10 -10 10 -5
0 -10 -4 -10 -10z"/>
<path d="M14720 5636 c0 -9 7 -16 16 -16 9 0 14 5 12 12 -6 18 -28 21 -28 4z"/>
<path d="M4426 5611 c-4 -7 -5 -15 -2 -18 9 -9 19 4 14 18 -4 11 -6 11 -12 0z"/>
<path d="M4499 5618 c-1 -2 -3 -14 -4 -28 -1 -14 -4 -32 -6 -40 -5 -20 72 -22
79 -2 3 9 -3 11 -21 7 -33 -9 -45 12 -18 31 28 20 27 34 -4 34 -14 0 -26 -1
-26 -2z"/>
<path d="M14585 5600 c3 -5 8 -10 11 -10 2 0 4 5 4 10 0 6 -5 10 -11 10 -5 0
-7 -4 -4 -10z"/>
<path d="M1240 5536 c0 -20 5 -36 10 -36 6 0 10 13 10 29 0 17 -4 33 -10 36
-6 4 -10 -8 -10 -29z"/>
<path d="M4620 5544 c0 -14 4 -23 10 -19 6 3 10 15 10 26 0 10 -4 19 -10 19
-5 0 -10 -12 -10 -26z"/>
<path d="M14581 5561 c-7 -5 -22 -6 -32 -4 -13 4 -19 0 -19 -11 0 -14 8 -17
43 -14 28 2 42 8 42 17 0 18 -16 23 -34 12z"/>
<path d="M17846 5560 c-11 -28 -11 -63 0 -67 15 -5 25 34 14 60 -6 17 -9 19
-14 7z"/>
<path d="M14460 5540 c0 -5 5 -10 10 -10 6 0 10 5 10 10 0 6 -4 10 -10 10 -5
0 -10 -4 -10 -10z"/>
<path d="M2532 5520 c-12 -12 -22 -29 -22 -39 0 -11 -9 -21 -21 -24 -12 -3
-18 -10 -14 -17 5 -8 12 -7 24 4 10 9 24 16 32 16 8 0 27 10 43 23 27 22 27
24 12 40 -22 22 -28 21 -54 -3z"/>
<path d="M1112 5518 c3 -7 18 -14 34 -16 28 -2 28 -2 10 13 -24 18 -49 20 -44
3z"/>
<path d="M1814 5516 c-10 -8 -15 -18 -11 -22 4 -4 15 0 24 9 22 21 12 31 -13
13z"/>
<path d="M3588 5518 c-21 -18 -27 -39 -17 -65 7 -19 16 -23 49 -23 34 0 41 3
38 18 -3 12 -12 16 -31 14 -19 -2 -27 2 -27 13 0 13 9 15 48 13 43 -3 47 -5
50 -30 4 -33 18 -37 27 -7 9 29 -32 72 -63 66 -12 -2 -25 0 -28 4 -7 13 -28
11 -46 -3z"/>
<path d="M16513 5513 c-7 -19 29 -53 57 -53 10 0 20 -7 24 -15 3 -8 16 -15 28
-15 23 1 23 1 -4 23 -16 13 -28 30 -28 38 0 36 -64 55 -77 22z"/>
<path d="M17958 5523 c-10 -2 -18 -11 -18 -20 0 -10 6 -13 16 -9 9 3 20 6 25
6 5 0 9 7 9 15 0 15 -2 16 -32 8z"/>
<path d="M4420 5510 c0 -5 5 -10 10 -10 6 0 10 5 10 10 0 6 -4 10 -10 10 -5 0
-10 -4 -10 -10z"/>
<path d="M14661 5506 c-7 -8 -34 -18 -59 -22 l-47 -8 40 -8 c34 -8 42 -6 64
16 14 14 22 28 19 31 -3 3 -11 -1 -17 -9z"/>
<path d="M15395 5494 c-22 -34 -19 -47 20 -87 28 -29 44 -37 71 -37 21 0 33 4
29 10 -3 6 -22 10 -41 10 -27 0 -34 4 -34 20 0 17 7 20 44 20 36 0 45 4 49 21
3 12 2 32 -3 44 -8 21 -15 23 -64 23 -47 -1 -58 -4 -71 -24z m93 -6 c19 -19
14 -28 -18 -28 -20 0 -30 -5 -30 -15 0 -9 -9 -15 -21 -15 -15 0 -19 4 -15 16
3 9 6 22 6 29 0 12 16 18 56 24 5 0 15 -4 22 -11z"/>
<path d="M1858 5469 c3 -30 -1 -46 -16 -62 -34 -37 -34 -59 -1 -95 19 -22 36
-32 46 -28 17 7 103 -30 103 -45 0 -5 7 -9 15 -9 8 0 15 9 15 19 0 38 11 51
45 51 19 0 37 5 41 11 5 9 -9 10 -54 5 -70 -8 -195 10 -189 27 5 16 99 44 175
52 34 4 62 11 62 15 0 9 -50 20 -91 20 -15 0 -31 5 -34 10 -9 15 -41 12 -55
-5 -18 -22 -30 -19 -30 8 0 36 -11 67 -24 67 -7 0 -10 -14 -8 -41z"/>
<path d="M18036 5503 c-3 -3 -6 -17 -6 -29 0 -14 -13 -33 -32 -48 -21 -16 -27
-26 -17 -26 20 0 79 61 79 82 0 19 -14 31 -24 21z"/>
<path d="M1046 5489 c-5 -10 5 -29 25 -52 31 -36 59 -48 59 -27 0 6 -4 10 -8
10 -15 0 -51 36 -61 61 -7 19 -10 21 -15 8z"/>
<path d="M2102 5489 c-30 -12 -19 -29 19 -29 22 0 29 5 29 20 0 22 -12 24 -48
9z"/>
<path d="M16950 5480 c0 -17 7 -20 40 -20 45 0 53 16 14 30 -38 15 -54 12 -54
-10z"/>
<path d="M17910 5474 c0 -8 5 -12 10 -9 6 3 10 10 10 16 0 5 -4 9 -10 9 -5 0
-10 -7 -10 -16z"/>
<path d="M1270 5450 c0 -10 -8 -24 -17 -29 -17 -10 -17 -12 -1 -24 20 -16 6
-37 -24 -37 -9 0 -22 -9 -28 -20 -13 -24 -55 -27 -94 -6 -21 10 -35 11 -59 3
-18 -5 -38 -12 -45 -13 -20 -6 -32 -48 -16 -57 8 -4 14 -15 14 -22 0 -18 36
-20 46 -4 4 8 13 4 25 -12 16 -22 18 -22 25 -6 4 11 0 25 -10 36 -9 10 -16 25
-16 35 0 15 8 16 73 10 56 -5 76 -11 88 -27 16 -19 19 -20 40 -5 13 8 43 34
65 57 23 22 47 41 53 41 7 0 9 5 5 11 -3 6 -16 9 -28 6 -38 -8 -71 7 -72 34
-2 43 -4 49 -14 49 -5 0 -10 -9 -10 -20z m-230 -170 c0 -5 -9 -10 -20 -10 -11
0 -20 5 -20 10 0 6 9 10 20 10 11 0 20 -4 20 -10z"/>
<path d="M17816 5457 c-5 -9 -6 -26 -3 -37 8 -30 -16 -42 -67 -35 -49 8 -66
-8 -21 -19 14 -4 25 -13 25 -22 0 -9 9 -18 20 -21 10 -3 26 -16 35 -29 18 -27
56 -32 75 -9 8 9 30 15 59 15 69 0 86 17 25 25 -27 3 -56 10 -64 16 -8 5 -23
12 -33 16 -14 4 -17 12 -12 34 5 22 3 29 -9 29 -8 0 -16 11 -18 28 -4 22 -6
24 -12 9z"/>
<path d="M17320 5443 c0 -13 5 -23 10 -23 13 0 13 11 0 30 -8 12 -10 11 -10
-7z"/>
<path d="M17875 5440 c-3 -5 -1 -10 4 -10 6 0 11 5 11 10 0 6 -2 10 -4 10 -3
0 -8 -4 -11 -10z"/>
<path d="M3074 5426 c-8 -21 3 -49 16 -41 5 3 10 15 10 25 0 25 -18 36 -26 16z"/>
<path d="M16002 5403 c4 -39 28 -42 28 -4 0 21 -5 31 -16 31 -11 0 -14 -8 -12
-27z"/>
<path d="M1615 5395 c-24 -20 -28 -28 -19 -42 17 -28 30 -26 44 7 8 18 20 30
31 30 25 0 24 -17 -1 -30 -21 -11 -27 -35 -10 -45 11 -7 70 22 70 34 0 5 3 16
6 25 4 12 0 16 -15 16 -12 0 -24 7 -27 15 -9 22 -45 18 -79 -10z"/>
<path d="M2790 5411 c0 -5 12 -11 28 -13 22 -2 28 -9 32 -38 6 -40 14 -32 24
23 l7 37 -46 0 c-25 0 -45 -4 -45 -9z"/>
<path d="M3010 5405 c0 -9 6 -12 15 -9 8 4 15 10 15 15 0 5 -7 9 -15 9 -8 0
-15 -7 -15 -15z"/>
<path d="M3660 5410 c0 -5 7 -10 15 -10 8 0 15 5 15 10 0 6 -7 10 -15 10 -8 0
-15 -4 -15 -10z"/>
<path d="M16065 5410 c3 -5 10 -10 16 -10 5 0 9 5 9 10 0 6 -7 10 -16 10 -8 0
-12 -4 -9 -10z"/>
<path d="M16230 5386 c0 -19 5 -38 10 -41 6 -3 10 2 10 12 0 10 3 28 6 41 5
16 2 22 -10 22 -12 0 -16 -9 -16 -34z"/>
<path d="M16500 5410 c0 -5 7 -10 15 -10 8 0 15 5 15 10 0 6 -7 10 -15 10 -8
0 -15 -4 -15 -10z"/>
<path d="M16655 5410 c3 -5 10 -10 16 -10 5 0 9 5 9 10 0 6 -7 10 -16 10 -8 0
-12 -4 -9 -10z"/>
<path d="M3205 5399 c-17 -5 -50 -28 -74 -53 -44 -45 -71 -51 -71 -15 0 32
-17 21 -24 -16 -14 -71 22 -74 94 -7 66 60 80 65 107 40 29 -27 45 -16 32 21
-12 35 -24 40 -64 30z"/>
<path d="M17415 5400 c-3 -5 -20 -10 -36 -10 l-30 0 17 -29 c10 -16 25 -32 33
-34 9 -3 23 -8 32 -11 13 -6 15 -1 11 24 -5 37 11 39 27 3 11 -24 14 -25 28
-11 22 23 9 52 -30 66 -40 15 -44 15 -52 2z"/>
<path d="M1160 5380 c0 -5 7 -10 15 -10 8 0 15 5 15 10 0 6 -7 10 -15 10 -8 0
-15 -4 -15 -10z"/>
<path d="M2137 5384 c-13 -13 -7 -54 7 -54 19 0 48 29 43 44 -4 13 -40 20 -50
10z"/>
<path d="M2311 5369 c-27 -16 -31 -23 -20 -30 25 -16 60 -10 79 13 33 42 -2
52 -59 17z"/>
<path d="M2505 5380 c-3 -5 3 -10 14 -10 12 0 21 5 21 10 0 6 -6 10 -14 10 -8
0 -18 -4 -21 -10z"/>
<path d="M2738 5359 c-31 -35 -61 -35 -66 -1 -6 38 -23 24 -20 -15 4 -55 39
-58 85 -8 19 21 33 41 31 46 -2 5 -15 -4 -30 -22z"/>
<path d="M2980 5380 c0 -5 5 -10 10 -10 6 0 10 5 10 10 0 6 -4 10 -10 10 -5 0
-10 -4 -10 -10z"/>
<path d="M3360 5376 c-6 -8 -23 -16 -37 -18 -15 -2 -28 -9 -31 -15 -5 -18 57
-17 64 1 3 8 21 17 40 21 19 3 32 10 29 16 -9 14 -51 11 -65 -5z"/>
<path d="M3500 5379 c0 -9 127 -22 140 -14 26 16 4 24 -65 23 -41 -1 -75 -5
-75 -9z"/>
<path d="M5172 5381 c-25 -15 121 -21 579 -21 467 0 724 8 679 21 -35 10
-1242 10 -1258 0z"/>
<path d="M15836 5374 c-17 -43 8 -62 32 -23 16 26 46 18 81 -22 23 -26 51 -39
51 -23 0 9 -49 54 -59 54 -5 0 -11 7 -15 15 -8 21 -82 20 -90 -1z"/>
<path d="M16100 5380 c0 -5 5 -10 10 -10 6 0 10 5 10 10 0 6 -4 10 -10 10 -5
0 -10 -4 -10 -10z"/>
<path d="M16330 5380 c0 -5 5 -10 11 -10 5 0 7 5 4 10 -3 6 -8 10 -11 10 -2 0
-4 -4 -4 -10z"/>
<path d="M16430 5366 c0 -14 -7 -31 -15 -39 -16 -17 -10 -27 17 -27 15 0 18 8
18 45 0 25 -4 45 -10 45 -5 0 -10 -11 -10 -24z"/>
<path d="M16560 5380 c0 -5 7 -10 16 -10 8 0 12 5 9 10 -3 6 -10 10 -16 10 -5
0 -9 -4 -9 -10z"/>
<path d="M16924 5375 c-4 -9 -2 -21 4 -27 15 -15 44 -1 40 19 -4 23 -36 29
-44 8z"/>
<path d="M1521 5362 c-12 -22 -6 -32 21 -32 14 0 19 6 16 22 -4 29 -24 34 -37
10z"/>
<path d="M16738 5374 c19 -9 14 -40 -10 -57 l-23 -16 22 0 c12 -1 25 4 28 9 3
6 14 10 24 10 9 0 26 6 37 14 18 14 18 15 -6 24 -28 10 -92 24 -72 16z"/>
<path d="M17540 5360 c0 -5 -1 -13 -1 -17 -3 -14 56 -42 89 -42 40 -1 42 15 2
24 -17 4 -35 15 -40 26 -11 20 -50 27 -50 9z"/>
<path d="M16032 5344 c1 -9 9 -19 16 -22 9 -3 13 2 10 14 -1 9 -9 19 -16 22
-9 3 -13 -2 -10 -14z"/>
<path d="M16130 5345 c0 -8 7 -15 16 -15 14 0 14 3 4 15 -7 8 -14 15 -16 15
-2 0 -4 -7 -4 -15z"/>
<path d="M2950 5339 c0 -5 5 -7 10 -4 6 3 10 8 10 11 0 2 -4 4 -10 4 -5 0 -10
-5 -10 -11z"/>
<path d="M15763 5339 c14 -8 22 -8 30 0 8 8 3 11 -18 11 -26 -1 -28 -2 -12
-11z"/>
<path d="M1730 5315 c0 -8 7 -15 16 -15 14 0 14 3 4 15 -7 8 -14 15 -16 15 -2
0 -4 -7 -4 -15z"/>
<path d="M1390 5310 c0 -5 20 -10 44 -10 25 0 48 5 51 10 4 6 -13 10 -44 10
-28 0 -51 -4 -51 -10z"/>
<path d="M2370 5310 c0 -5 9 -10 20 -10 11 0 20 5 20 10 0 6 -9 10 -20 10 -11
0 -20 -4 -20 -10z"/>
<path d="M17350 5310 c0 -5 5 -10 10 -10 6 0 10 5 10 10 0 6 -4 10 -10 10 -5
0 -10 -4 -10 -10z"/>
<path d="M18048 5313 c-11 -3 -18 -14 -18 -29 0 -13 -4 -24 -10 -24 -13 0 -13
-37 -1 -45 5 -3 12 -1 16 5 3 5 19 10 36 10 22 0 29 5 29 20 0 11 -7 20 -15
20 -8 0 -15 7 -15 15 0 18 12 19 28 3 15 -15 26 -4 19 17 -6 14 -33 18 -69 8z"/>
<path d="M2890 5290 c-29 -15 -36 -16 -43 -4 -10 18 -27 18 -27 0 0 -23 57
-30 85 -12 14 9 25 21 25 26 0 6 -1 10 -2 9 -2 -1 -19 -9 -38 -19z"/>
<path d="M16040 5303 c-8 -2 -21 -7 -29 -9 -12 -4 -12 -7 1 -20 20 -21 58 -10
58 17 0 19 -4 21 -30 12z"/>
<path d="M16180 5289 c6 -10 20 -19 30 -19 28 0 25 6 -10 23 -28 15 -29 15
-20 -4z"/>
<path d="M16260 5290 c-9 -17 -8 -20 10 -20 11 0 20 6 20 14 0 24 -18 28 -30
6z"/>
<path d="M1767 5284 c-8 -8 3 -34 14 -34 11 0 12 27 0 34 -4 3 -11 3 -14 0z"/>
<path d="M2440 5280 c0 -5 9 -14 19 -20 11 -5 21 -20 23 -32 4 -29 37 -36 55
-12 19 26 17 32 -19 54 -35 21 -78 27 -78 10z"/>
<path d="M16610 5276 c-40 -11 -45 -15 -45 -41 0 -24 5 -31 23 -33 18 -3 26 3
35 28 7 18 21 33 34 36 24 6 32 25 11 23 -7 -1 -33 -6 -58 -13z"/>
<path d="M1868 5252 c-5 -17 -13 -22 -37 -22 -21 0 -31 -5 -31 -15 0 -10 10
-15 28 -15 30 0 59 35 50 61 -3 8 -7 5 -10 -9z"/>
<path d="M2117 5253 c-11 -10 -8 -20 8 -27 21 -8 45 3 45 20 0 14 -41 20 -53
7z"/>
<path d="M16937 5253 c-11 -10 -8 -20 8 -27 21 -8 45 3 45 20 0 14 -41 20 -53
7z"/>
<path d="M17260 5220 c-11 -6 -12 -12 -4 -20 13 -13 44 -2 44 16 0 16 -18 18
-40 4z"/>
<path d="M1311 5204 c0 -11 3 -14 6 -6 3 7 2 16 -1 19 -3 4 -6 -2 -5 -13z"/>
<path d="M2028 5214 c-8 -7 3 -54 13 -54 12 0 12 47 0 54 -4 3 -10 3 -13 0z"/>
<path d="M1208 5135 c-3 -80 -1 -95 12 -95 4 0 8 38 8 85 -1 47 -4 85 -9 85
-4 0 -9 -34 -11 -75z"/>
<path d="M17870 5191 c0 -11 5 -23 10 -26 6 -4 10 5 10 19 0 14 -4 26 -10 26
-5 0 -10 -9 -10 -19z"/>
<path d="M993 5186 c4 -14 57 -21 57 -8 0 5 -14 12 -30 14 -19 3 -29 1 -27 -6z"/>
<path d="M18042 5188 c5 -15 68 -24 68 -10 0 12 -24 22 -52 22 -11 0 -18 -5
-16 -12z"/>
<path d="M17783 5130 c0 -36 2 -50 4 -32 2 17 2 47 0 65 -2 17 -4 3 -4 -33z"/>
<path d="M1313 5110 c0 -30 2 -43 4 -27 2 15 2 39 0 55 -2 15 -4 2 -4 -28z"/>
<path d="M2050 5121 c0 -28 11 -52 21 -45 16 9 11 64 -6 64 -8 0 -15 -9 -15
-19z"/>
<path d="M17027 5124 c-15 -15 -6 -51 18 -74 20 -18 25 -20 25 -8 0 9 -5 18
-11 20 -6 2 -14 18 -17 37 -4 18 -10 29 -15 25z"/>
<path d="M1943 5094 c-15 -6 -18 -54 -4 -54 5 0 14 7 21 15 7 8 24 15 37 15
35 0 23 25 -13 27 -16 1 -35 0 -41 -3z"/>
<path d="M17085 5080 c-5 -8 1 -11 18 -8 17 2 31 -4 41 -17 14 -17 17 -18 26
-5 5 8 8 20 7 25 -5 14 -84 18 -92 5z"/>
<path d="M17877 5074 c-4 -4 -7 -17 -7 -28 0 -19 1 -19 17 -3 12 11 14 20 7
27 -6 6 -13 7 -17 4z"/>
<path d="M2026 5045 c-3 -8 -17 -15 -32 -15 -30 0 -28 -23 3 -28 23 -3 53 22
53 44 0 19 -16 18 -24 -1z"/>
<path d="M1240 5016 c0 -8 9 -18 20 -21 27 -9 25 -22 -5 -29 -14 -4 -25 -13
-25 -21 0 -18 14 -19 40 -3 15 10 23 9 39 -6 27 -25 26 -30 -6 -43 -26 -10
-26 -11 -5 -12 21 -1 62 30 62 47 0 12 -44 52 -58 52 -7 0 -12 11 -12 25 0 20
-5 25 -25 25 -15 0 -25 -6 -25 -14z"/>
<path d="M17833 5023 c-7 -3 -13 -11 -13 -19 0 -8 -8 -17 -17 -21 -29 -10 -53
-35 -53 -55 0 -10 5 -18 10 -18 6 0 10 -7 10 -15 0 -11 11 -15 43 -14 27 1 33
3 17 6 -26 5 -50 20 -50 32 0 3 9 12 21 19 15 10 24 10 34 2 8 -7 21 -10 30
-8 15 3 15 6 -4 29 -15 20 -17 29 -9 37 14 14 -1 32 -19 25z"/>
<path d="M15325 4804 c-216 -33 -361 -90 -510 -201 -133 -99 -228 -216 -305
-378 -59 -123 -85 -209 -105 -346 -19 -134 -19 -224 0 -354 62 -416 316 -727
680 -832 175 -51 347 -65 493 -39 50 9 102 16 115 16 70 0 450 143 499 187 16
15 18 39 18 252 1 289 11 414 38 467 33 65 53 77 140 83 91 7 102 13 102 51 0
23 -6 30 -31 39 -40 14 -767 15 -802 2 -34 -13 -44 -47 -21 -72 13 -15 31 -19
81 -19 91 0 115 -15 156 -100 21 -42 22 -61 25 -321 4 -271 3 -277 -17 -296
-28 -26 -183 -103 -208 -103 -10 0 -40 -7 -67 -15 -33 -10 -93 -15 -181 -15
-157 0 -219 17 -329 91 -288 193 -432 615 -356 1050 61 352 236 588 495 670
89 28 298 27 380 -2 109 -38 173 -79 246 -157 80 -86 131 -167 189 -303 53
-123 91 -171 133 -167 19 2 38 13 50 30 24 32 25 92 3 339 -8 90 -18 212 -22
271 -8 131 -25 168 -78 168 -38 0 -46 -7 -96 -93 -46 -80 -67 -84 -153 -28
-34 22 -80 47 -102 56 -22 9 -49 20 -60 25 -69 30 -313 57 -400 44z"/>
<path d="M13236 4754 c-39 -39 -4 -70 88 -77 77 -6 109 -23 141 -78 19 -33 20
-52 20 -639 0 -537 -2 -605 -15 -605 -16 0 -47 34 -330 360 -85 98 -164 189
-175 201 -11 12 -56 63 -100 115 -44 51 -105 120 -135 154 -30 33 -93 106
-140 160 -47 55 -103 120 -125 145 -22 25 -67 76 -100 114 -33 39 -74 85 -91
103 l-31 33 -291 0 c-251 0 -293 -2 -306 -16 -21 -21 -20 -37 5 -60 16 -14 42
-20 112 -24 107 -7 153 -26 211 -90 80 -89 76 -35 76 -860 0 -503 -4 -747 -11
-775 -6 -21 -25 -53 -43 -71 -29 -29 -39 -32 -114 -39 -66 -6 -84 -11 -93 -26
-11 -22 2 -53 27 -63 8 -3 174 -6 368 -6 340 0 354 1 371 20 15 16 16 25 7 44
-11 24 -50 36 -125 36 -48 0 -89 28 -113 77 -18 36 -19 75 -22 641 -3 632 -4
623 38 589 15 -12 127 -139 283 -321 42 -50 120 -140 172 -201 52 -60 129
-151 172 -201 94 -109 187 -218 258 -299 94 -107 178 -206 266 -309 74 -88 91
-102 126 -110 59 -12 109 -1 117 27 3 12 6 429 6 927 0 563 4 918 10 940 5 20
25 51 43 68 30 29 42 34 108 39 97 7 133 37 93 77 -13 14 -62 16 -379 16 -317
0 -366 -2 -379 -16z"/>
<path d="M17798 4734 c-32 -17 -31 -12 -17 -70 9 -34 9 -47 -1 -59 -7 -9 -10
-19 -6 -23 4 -4 12 1 17 11 7 11 22 17 44 17 19 0 35 3 35 6 0 9 -44 43 -57
44 -14 0 -21 19 -15 43 6 23 29 22 37 -3 9 -30 25 -24 25 9 0 17 -6 31 -16 35
-19 7 -13 8 -46 -10z"/>
<path d="M1247 4733 c-10 -9 -9 -63 1 -63 5 0 14 12 21 26 11 25 13 26 30 10
23 -20 40 -4 21 19 -13 15 -61 20 -73 8z"/>
<path d="M2585 4729 c-10 -15 -28 -396 -21 -434 8 -40 40 -75 70 -75 30 0 63
37 122 139 60 103 112 156 184 188 47 22 73 26 191 31 94 3 143 1 158 -7 l22
-12 -3 -812 c-3 -809 -3 -812 -25 -852 -35 -67 -59 -82 -138 -88 -38 -3 -77
-8 -87 -12 -25 -10 -29 -44 -7 -66 18 -18 38 -19 422 -19 391 0 404 1 422 20
15 17 16 24 7 45 -7 15 -20 25 -34 26 -164 6 -191 24 -222 144 -14 51 -16 167
-16 837 l0 778 28 11 c16 6 78 9 152 7 209 -6 273 -44 383 -230 31 -53 67
-104 79 -113 36 -25 66 -19 89 18 20 31 20 41 14 246 -3 131 -10 220 -17 228
-14 17 -1763 19 -1773 2z"/>
<path d="M4736 4727 c-25 -18 -17 -58 14 -74 14 -7 54 -13 89 -13 59 0 66 -2
96 -34 59 -63 58 -55 62 -836 4 -743 1 -816 -37 -891 -28 -53 -53 -67 -140
-75 -81 -7 -100 -16 -100 -47 0 -45 11 -46 435 -46 424 0 435 1 435 46 0 33
-24 44 -107 50 -72 6 -81 9 -109 39 -52 54 -56 87 -61 460 l-5 341 24 6 c12 4
228 7 479 7 390 0 458 -2 469 -15 9 -11 11 -97 8 -357 -4 -320 -6 -346 -25
-388 -34 -73 -56 -88 -148 -95 -44 -4 -86 -11 -92 -17 -18 -15 -16 -42 5 -61
17 -15 60 -17 416 -17 255 0 404 4 417 10 22 12 25 52 5 69 -7 6 -47 14 -89
17 -82 7 -110 24 -144 87 -17 30 -18 87 -18 832 l0 800 28 47 c34 59 51 68
124 68 70 0 107 17 111 50 7 49 -1 50 -434 50 -358 0 -404 -2 -419 -16 -22
-23 -15 -56 15 -71 14 -7 55 -13 91 -13 58 0 68 -3 92 -27 58 -62 61 -79 65
-436 3 -248 1 -331 -8 -342 -11 -13 -79 -15 -474 -15 -366 0 -466 3 -480 13
-17 12 -18 34 -13 338 5 354 8 378 63 436 30 31 35 33 100 33 79 0 114 17 114
55 0 14 -8 29 -19 35 -31 16 -812 14 -835 -3z"/>
<path d="M7232 4724 c-29 -20 -25 -54 8 -71 14 -7 55 -13 91 -13 64 0 68 -2
98 -35 57 -65 56 -53 56 -880 0 -576 -3 -770 -12 -801 -7 -22 -27 -57 -45 -77
-32 -35 -36 -37 -112 -42 -44 -3 -86 -10 -93 -16 -18 -16 -16 -43 5 -63 17
-15 82 -16 783 -14 l764 3 80 236 80 237 -17 36 c-16 31 -22 36 -53 36 -20 0
-45 -5 -55 -10 -11 -6 -51 -57 -90 -115 -82 -120 -155 -191 -238 -232 l-57
-28 -277 -3 -277 -3 -33 30 -33 29 -3 354 c-3 325 -1 354 15 365 12 10 72 13
218 13 194 0 203 -1 251 -25 57 -29 81 -61 123 -165 33 -81 50 -100 91 -100
69 0 83 67 78 395 -3 239 -4 255 -24 282 -15 20 -31 29 -56 31 -42 4 -50 -5
-103 -112 -34 -69 -47 -85 -89 -111 l-49 -30 -208 -3 c-137 -2 -215 1 -229 8
-20 10 -20 19 -20 371 l0 359 28 11 c17 7 117 9 272 7 l245 -3 68 -33 c75 -37
136 -103 185 -201 56 -114 118 -149 163 -93 21 27 21 30 15 247 -4 131 -11
224 -18 232 -8 10 -159 13 -757 13 -667 0 -749 -2 -769 -16z"/>
<path d="M10508 4729 c-10 -5 -18 -21 -18 -34 0 -38 35 -55 114 -55 65 0 70
-2 101 -35 60 -63 60 -63 60 -880 0 -812 0 -814 -58 -879 -31 -34 -36 -36
-110 -41 -44 -2 -85 -9 -93 -16 -20 -17 -17 -57 5 -69 13 -6 163 -10 420 -10
392 0 401 0 422 21 18 18 19 23 6 42 -16 25 -49 34 -124 36 -43 1 -56 6 -82
32 -18 18 -38 54 -48 87 -17 52 -18 119 -18 797 0 676 2 745 17 796 10 31 31
71 47 88 27 29 34 31 99 31 55 0 75 4 96 21 31 25 32 33 6 59 -19 19 -33 20
-422 20 -255 0 -409 -4 -420 -11z"/>
<path d="M1227 4621 c-27 -30 -35 -51 -17 -51 5 0 14 9 20 20 6 11 18 20 28
20 27 -1 72 -46 78 -80 4 -16 10 -27 15 -24 17 10 9 53 -18 98 -34 55 -65 60
-106 17z"/>
<path d="M17740 4531 c0 -22 5 -43 10 -46 6 -4 10 12 10 39 0 25 -4 46 -10 46
-5 0 -10 -18 -10 -39z"/>
<path d="M17810 4541 c0 -11 5 -23 10 -26 6 -3 10 -15 10 -26 0 -14 -7 -19
-25 -19 -14 0 -25 -4 -25 -10 0 -14 42 -12 63 4 22 17 22 58 -1 79 -24 22 -32
21 -32 -2z"/>
<path d="M1181 4508 c0 -33 2 -38 9 -23 12 28 12 65 0 65 -5 0 -10 -19 -9 -42z"/>
<path d="M1257 4532 c-21 -23 -22 -52 -2 -52 8 0 15 6 15 14 0 8 7 16 15 20 8
3 12 12 9 21 -8 20 -17 19 -37 -3z"/>
<path d="M17912 4500 c0 -53 1 -54 10 -22 8 23 8 39 0 55 -9 19 -11 13 -10
-33z"/>
<path d="M1280 4460 c0 -5 9 -10 20 -10 11 0 20 5 20 10 0 6 -9 10 -20 10 -11
0 -20 -4 -20 -10z"/>
<path d="M1207 4433 c-12 -11 -8 -40 8 -53 8 -7 15 -21 15 -31 0 -11 9 -28 20
-39 11 -11 20 -28 20 -39 0 -10 6 -24 14 -30 7 -6 16 -25 20 -41 3 -17 10 -30
16 -30 16 0 12 60 -5 66 -8 4 -15 12 -15 19 0 20 -50 115 -61 115 -5 0 -9 16
-9 35 0 33 -8 43 -23 28z"/>
<path d="M17876 4423 c-3 -3 -6 -16 -6 -28 0 -13 -7 -29 -16 -36 -9 -7 -20
-22 -25 -34 -5 -11 -13 -27 -17 -35 -28 -49 -42 -84 -42 -101 0 -21 18 -26 24
-6 8 25 17 43 45 92 16 28 30 57 30 66 1 9 8 22 16 29 8 7 15 21 15 31 0 19
-13 32 -24 22z"/>
<path d="M940 4355 c0 -8 5 -15 10 -15 6 0 10 -7 10 -16 0 -14 -3 -14 -16 -3
-27 22 -43 -20 -25 -65 7 -19 8 -19 14 3 5 19 10 21 41 16 45 -9 55 10 32 60
-13 26 -23 35 -41 35 -16 0 -25 -6 -25 -15z"/>
<path d="M18096 4335 c-18 -33 -18 -37 -3 -52 15 -15 18 -15 35 0 21 19 42 6
42 -26 0 -10 5 -15 10 -12 17 10 11 78 -9 103 -28 32 -53 28 -75 -13z"/>
<path d="M1150 4260 c0 -22 41 -90 55 -90 23 0 27 18 9 43 -24 31 -64 61 -64
47z"/>
<path d="M17905 4230 c-32 -33 -36 -41 -25 -55 19 -22 39 -18 46 10 3 13 12
29 20 36 15 12 19 49 6 49 -4 0 -25 -18 -47 -40z"/>
<path d="M835 4200 c-3 -6 2 -13 12 -16 35 -11 48 -21 51 -43 4 -23 -8 -27
-25 -10 -15 15 -33 3 -33 -22 0 -10 -4 -19 -10 -19 -5 0 -10 -7 -10 -15 0 -8
7 -15 15 -15 8 0 15 4 15 9 0 6 17 11 37 13 35 3 51 18 79 76 11 21 -12 38
-31 22 -13 -11 -19 -10 -36 8 -21 23 -54 29 -64 12z"/>
<path d="M18211 4188 c-27 -17 -37 -19 -52 -10 -16 10 -19 9 -19 -5 0 -49 67
-108 100 -88 5 3 13 -1 16 -9 8 -20 34 -21 34 -2 0 8 -7 16 -15 20 -8 3 -15
15 -15 26 0 25 -18 26 -36 3 -12 -17 -13 -17 -20 1 -4 10 -3 21 3 25 5 3 13
14 16 25 5 11 13 16 23 12 9 -3 22 -6 30 -6 9 0 14 -10 14 -27 0 -16 4 -35 9
-42 8 -12 12 -10 22 12 11 25 10 30 -17 57 -35 35 -48 36 -93 8z"/>
<path d="M1418 4183 c-8 -10 -18 -26 -21 -35 -7 -20 -22 -23 -32 -8 -3 6 -11
10 -17 10 -7 0 -9 -18 -4 -54 6 -55 -5 -100 -31 -121 -8 -6 -9 -15 -4 -23 6
-11 11 -10 25 3 14 14 17 15 22 2 3 -9 0 -25 -6 -36 -6 -12 -7 -27 -3 -34 30
-48 54 -167 33 -167 -6 0 -10 -35 -10 -85 0 -47 4 -85 9 -85 15 0 43 101 52
190 5 47 11 108 15 136 4 34 2 54 -5 58 -6 4 -11 29 -11 57 0 27 -4 49 -9 49
-31 0 -12 78 28 122 12 12 21 25 21 30 0 15 -37 8 -52 -9z"/>
<path d="M17644 4178 c9 -13 23 -33 32 -44 19 -27 23 -75 7 -81 -7 -3 -13 2
-13 11 0 9 -8 16 -20 16 -26 0 -27 -30 -1 -37 14 -3 20 -17 24 -51 3 -28 1
-50 -6 -54 -13 -8 -12 -41 2 -172 11 -109 36 -195 57 -203 8 -3 14 -16 14 -28
0 -13 5 -27 10 -30 6 -3 10 5 10 19 0 14 -4 27 -9 30 -4 3 -11 40 -13 83 -3
44 -10 79 -17 81 -13 4 -15 44 -2 58 13 14 32 126 25 150 -3 12 1 27 10 37 17
17 19 43 10 125 -6 45 -10 52 -29 52 -12 0 -31 13 -43 30 -13 17 -32 30 -44
30 -19 0 -20 -1 -4 -22z"/>
<path d="M780 4140 c0 -11 4 -20 9 -20 5 0 11 9 14 20 3 13 0 20 -9 20 -8 0
-14 -9 -14 -20z"/>
<path d="M17847 4154 c-14 -15 -6 -34 14 -34 14 0 19 5 17 17 -3 18 -20 27
-31 17z"/>
<path d="M1227 4144 c-4 -4 -7 -14 -7 -23 0 -11 3 -12 11 -4 6 6 10 16 7 23
-2 6 -7 8 -11 4z"/>
<path d="M1242 4064 c4 -21 22 -23 26 -1 2 10 -3 17 -13 17 -10 0 -15 -6 -13
-16z"/>
<path d="M1437 4064 c-14 -14 -6 -24 19 -24 16 0 24 5 22 13 -5 14 -31 21 -41
11z"/>
<path d="M1127 4027 c-8 -13 -17 -34 -19 -48 -2 -18 -10 -25 -30 -27 -16 -2
-28 -8 -28 -13 0 -5 -11 -14 -25 -19 -33 -13 -32 -28 3 -32 36 -4 36 -32 -1
-36 -16 -2 -31 -10 -34 -18 -3 -9 -19 -14 -43 -14 -46 0 -72 -9 -64 -21 9 -15
81 -10 98 6 8 8 28 15 45 15 16 0 33 5 36 10 13 20 27 10 21 -15 -5 -21 -3
-25 14 -25 25 0 37 -25 21 -44 -12 -14 -5 -26 15 -26 6 0 26 -13 44 -30 40
-37 53 -38 35 -2 -8 15 -16 34 -19 42 -3 8 -10 22 -15 30 -23 37 -51 122 -51
154 0 25 6 38 20 46 15 8 20 21 20 50 0 46 -19 53 -43 17z"/>
<path d="M17935 4040 c-12 -19 6 -78 26 -83 11 -3 19 -14 19 -26 0 -45 -65
-203 -101 -247 -6 -7 -9 -18 -7 -24 2 -6 22 7 45 30 23 22 50 40 59 40 16 0
16 1 1 18 -16 17 -15 20 6 40 33 32 58 62 52 62 -3 0 -1 9 5 20 6 11 17 20 25
20 26 0 27 21 0 46 -14 13 -37 24 -51 24 -18 0 -24 5 -24 23 0 24 -25 67 -40
67 -5 0 -12 -4 -15 -10z"/>
<path d="M865 4030 c3 -5 15 -10 26 -10 10 0 19 5 19 10 0 6 -12 10 -26 10
-14 0 -23 -4 -19 -10z"/>
<path d="M18210 4030 c0 -13 11 -13 30 0 12 8 11 10 -7 10 -13 0 -23 -4 -23
-10z"/>
<path d="M1270 4010 c0 -11 7 -20 15 -20 8 0 15 9 15 20 0 11 -7 20 -15 20 -8
0 -15 -9 -15 -20z"/>
<path d="M920 4000 c0 -5 4 -10 9 -10 5 0 16 -3 25 -6 11 -4 16 -1 16 10 0 10
-9 16 -25 16 -14 0 -25 -4 -25 -10z"/>
<path d="M18155 4000 c-3 -5 1 -10 9 -10 9 0 16 5 16 10 0 6 -4 10 -9 10 -6 0
-13 -4 -16 -10z"/>
<path d="M974 3966 c-3 -8 -17 -17 -30 -20 -14 -4 -22 -11 -19 -16 10 -16 34
-11 71 14 28 19 32 25 19 30 -25 9 -35 7 -41 -8z"/>
<path d="M18092 3971 c-10 -6 -8 -11 5 -23 25 -22 55 -29 73 -18 13 8 12 10
-4 10 -11 0 -29 9 -41 20 -12 11 -25 16 -33 11z"/>
<path d="M18290 3966 c0 -7 81 -46 96 -46 33 0 6 24 -42 36 -59 16 -54 15 -54
10z"/>
<path d="M1170 3943 c0 -24 21 -51 97 -126 35 -33 65 -69 69 -79 6 -21 34 -24
34 -4 0 16 -51 70 -123 130 -28 24 -47 48 -49 64 -4 30 -28 43 -28 15z"/>
<path d="M701 3931 c-26 -26 -29 -51 -3 -29 9 9 26 18 37 20 11 2 19 8 18 13
-4 19 -32 16 -52 -4z"/>
<path d="M17906 3934 c-8 -22 1 -31 16 -16 9 9 9 15 1 23 -7 7 -12 5 -17 -7z"/>
<path d="M18530 3892 c-14 -9 -31 -23 -38 -29 -7 -7 -20 -13 -28 -13 -18 0
-18 -14 0 -29 10 -8 19 -6 39 9 33 26 53 25 62 -2 6 -21 8 -19 17 15 17 64 -2
83 -52 49z"/>
<path d="M514 3865 c-7 -38 0 -65 16 -65 5 0 10 8 10 19 0 10 10 26 23 35 22
15 22 16 3 31 -31 23 -45 18 -52 -20z"/>
<path d="M18442 3880 c0 -14 2 -19 5 -12 2 6 2 18 0 25 -3 6 -5 1 -5 -13z"/>
<path d="M603 3838 c2 -7 12 -13 22 -13 10 0 20 6 23 13 2 7 -6 12 -23 12 -17
0 -25 -5 -22 -12z"/>
<path d="M801 3841 c-9 -6 -10 -11 -2 -15 15 -10 53 3 46 15 -8 11 -26 11 -44
0z"/>
<path d="M18285 3840 c-3 -5 -2 -10 4 -10 19 0 68 -55 75 -83 8 -32 26 -27 26
7 0 13 -16 39 -37 59 -37 37 -57 45 -68 27z"/>
<path d="M336 3795 c-20 -31 -21 -65 -1 -65 9 0 15 9 15 25 0 29 17 33 36 8
12 -17 13 -17 19 0 8 19 -19 57 -40 57 -7 0 -20 -11 -29 -25z"/>
<path d="M736 3788 c-26 -32 -34 -72 -17 -82 10 -7 21 17 21 46 0 11 10 28 22
37 13 11 17 20 11 24 -6 4 -22 -8 -37 -25z"/>
<path d="M18712 3797 c-26 -27 -28 -37 -7 -37 8 0 15 5 15 10 0 6 7 10 15 10
8 0 15 -9 15 -19 0 -21 17 -37 27 -27 11 11 4 69 -9 77 -21 14 -33 11 -56 -14z"/>
<path d="M17775 3801 c-6 -11 9 -23 19 -14 9 9 7 23 -3 23 -6 0 -12 -4 -16 -9z"/>
<path d="M18125 3800 c3 -5 31 -10 61 -10 34 0 53 4 49 10 -3 6 -31 10 -61 10
-34 0 -53 -4 -49 -10z"/>
<path d="M18245 3781 c-5 -9 24 -31 39 -31 13 0 5 28 -10 34 -20 8 -22 8 -29
-3z"/>
<path d="M18590 3778 c0 -7 4 -19 9 -27 11 -17 23 1 15 23 -7 19 -24 21 -24 4z"/>
<path d="M18010 3770 c0 -5 11 -10 25 -10 14 0 25 5 25 10 0 6 -11 10 -25 10
-14 0 -25 -4 -25 -10z"/>
<path d="M490 3749 c0 -11 5 -17 10 -14 6 3 10 13 10 21 0 8 -4 14 -10 14 -5
0 -10 -9 -10 -21z"/>
<path d="M17730 3745 c0 -16 6 -25 15 -25 9 0 15 9 15 25 0 16 -6 25 -15 25
-9 0 -15 -9 -15 -25z"/>
<path d="M927 3732 c-10 -10 -17 -24 -17 -30 0 -17 30 -15 36 3 4 8 10 15 15
15 5 0 9 -7 9 -15 0 -8 7 -15 15 -15 20 0 18 10 -4 38 -23 27 -33 28 -54 4z"/>
<path d="M18135 3739 c-8 -12 34 -51 46 -43 15 9 10 41 -7 48 -22 9 -32 7 -39
-5z"/>
<path d="M18300 3730 c0 -19 3 -21 12 -12 9 9 9 15 0 24 -9 9 -12 7 -12 -12z"/>
<path d="M780 3715 c0 -14 5 -25 10 -25 6 0 10 11 10 25 0 14 -4 25 -10 25 -5
0 -10 -11 -10 -25z"/>
<path d="M350 3706 c0 -11 9 -16 26 -16 31 0 28 23 -4 28 -15 2 -22 -2 -22
-12z"/>
<path d="M440 3700 c0 -5 4 -10 9 -10 6 0 13 5 16 10 3 6 -1 10 -9 10 -9 0
-16 -4 -16 -10z"/>
<path d="M1055 3699 c-4 -6 2 -13 14 -16 12 -3 21 -8 21 -12 0 -10 -57 -51
-70 -51 -22 0 -5 -18 49 -54 67 -46 87 -46 39 -1 -21 20 -38 42 -38 51 0 18
23 44 39 44 17 0 13 15 -7 33 -21 20 -38 22 -47 6z"/>
<path d="M17997 3691 c-16 -16 -16 -20 -2 -31 12 -10 18 -8 35 11 10 13 19 27
20 32 0 14 -35 6 -53 -12z"/>
<path d="M18650 3706 c0 -9 30 -14 35 -6 4 6 -3 10 -14 10 -12 0 -21 -2 -21
-4z"/>
<path d="M18715 3700 c4 -6 11 -8 16 -5 14 9 11 15 -7 15 -8 0 -12 -5 -9 -10z"/>
<path d="M18476 3671 c-15 -17 -26 -19 -68 -14 -45 5 -50 4 -46 -13 4 -22 65
-32 97 -15 26 15 40 -9 34 -58 -4 -32 0 -39 28 -58 34 -23 49 -22 49 3 0 8 -9
14 -19 14 -24 0 -41 49 -38 109 2 49 -11 61 -37 32z"/>
<path d="M580 3663 c0 -31 14 -39 70 -38 30 0 61 -2 69 -5 18 -6 27 28 12 43
-8 8 -14 8 -23 -1 -18 -18 -85 -15 -92 3 -8 21 -36 19 -36 -2z"/>
<path d="M776 3636 c-6 -31 -11 -36 -35 -36 -17 0 -36 -10 -49 -25 -12 -14
-26 -25 -32 -25 -5 0 -10 -7 -10 -15 0 -19 14 -19 34 0 8 8 38 19 68 23 l53 8
-2 43 c-3 58 -18 73 -27 27z"/>
<path d="M880 3621 c0 -39 15 -47 34 -19 11 16 13 25 4 35 -19 23 -38 15 -38
-16z"/>
<path d="M1480 3631 c-5 -11 -10 -29 -10 -40 0 -18 3 -19 29 -10 32 11 44 30
35 54 -9 21 -41 19 -54 -4z"/>
<path d="M17572 3623 c2 -22 9 -29 31 -31 30 -4 35 12 13 41 -21 28 -48 22
-44 -10z"/>
<path d="M18115 3639 c-4 -5 6 -9 20 -9 16 0 35 -11 50 -27 22 -26 25 -27 40
-12 30 29 5 53 -54 56 -28 1 -53 -3 -56 -8z"/>
<path d="M18297 3618 c-10 -38 9 -58 58 -58 57 0 66 16 16 30 -25 6 -42 18
-46 30 -8 26 -21 25 -28 -2z"/>
<path d="M17840 3609 c0 -11 5 -17 10 -14 6 3 10 13 10 21 0 8 -4 14 -10 14
-5 0 -10 -9 -10 -21z"/>
<path d="M18033 3613 c-3 -10 -13 -26 -21 -35 -22 -26 1 -23 49 7 22 14 37 30
34 35 -10 17 -55 11 -62 -7z"/>
<path d="M586 3563 c-12 -12 -6 -33 9 -33 8 0 15 6 15 14 0 17 -14 28 -24 19z"/>
<path d="M891 3526 c-19 -30 -37 -41 -93 -60 -26 -8 -22 -23 10 -40 15 -8 43
-28 62 -45 30 -28 33 -34 22 -51 -13 -22 -16 -86 -4 -94 16 -9 34 11 28 32 -9
27 29 89 59 96 14 4 25 11 25 16 0 16 -50 11 -56 -5 -7 -17 -44 -21 -44 -5 0
6 -11 23 -25 38 -14 15 -25 30 -25 34 0 4 17 23 38 42 34 32 39 34 59 20 12
-8 31 -14 41 -14 11 0 25 -7 32 -15 7 -8 26 -15 42 -15 43 0 34 -33 -10 -40
-18 -3 -33 -9 -34 -15 -3 -17 28 -17 67 -1 43 18 105 21 105 5 0 -6 15 -9 38
-7 36 3 37 2 40 -34 4 -46 16 -49 31 -8 11 34 41 41 41 10 0 -11 5 -20 10 -20
6 0 10 9 10 20 0 11 -4 20 -8 20 -15 0 -32 50 -26 75 3 13 12 26 20 29 16 6
19 36 4 36 -6 0 -13 -7 -16 -15 -9 -22 -23 -18 -34 10 -13 33 -28 32 -32 -2
-2 -22 -9 -29 -29 -31 -14 -2 -31 4 -39 12 -14 17 -40 22 -40 7 0 -5 9 -13 21
-16 34 -11 15 -30 -33 -33 -31 -2 -49 2 -58 13 -7 8 -23 15 -35 15 -12 0 -28
7 -35 15 -7 8 -18 15 -25 15 -7 0 -24 9 -38 20 -34 27 -42 25 -66 -14z"/>
<path d="M17801 3530 c-5 -16 -15 -30 -20 -30 -14 0 -14 -33 -1 -46 13 -13 -9
-64 -27 -64 -7 0 -13 -9 -13 -20 0 -11 4 -20 9 -20 5 0 11 9 14 20 7 28 26 25
37 -5 12 -31 30 -33 30 -2 0 40 12 48 52 34 19 -7 43 -19 52 -26 9 -8 19 -11
22 -8 9 9 -6 27 -22 27 -9 0 -14 7 -12 18 5 21 68 20 101 -3 28 -20 77 -20 77
0 0 11 -12 15 -46 15 -38 0 -45 3 -42 18 2 10 14 18 30 20 15 2 32 10 38 18 7
8 23 14 37 14 13 0 26 7 29 15 10 24 39 17 70 -18 36 -39 47 -64 31 -71 -7 -3
2 -3 18 0 80 15 83 23 20 54 -25 12 -53 36 -65 56 -22 34 -43 43 -56 23 -3 -6
-22 -17 -40 -25 -19 -8 -34 -18 -34 -23 0 -5 -21 -11 -47 -15 -27 -3 -64 -8
-83 -11 -31 -6 -33 -5 -17 8 9 8 17 19 17 26 0 17 -46 13 -60 -5 -8 -8 -25
-14 -39 -12 -21 2 -27 9 -29 36 -4 40 -17 41 -31 2z"/>
<path d="M17965 3540 c-3 -5 1 -10 9 -10 8 0 18 5 21 10 3 6 -1 10 -9 10 -8 0
-18 -4 -21 -10z"/>
<path d="M18425 3540 c3 -5 10 -10 16 -10 5 0 9 5 9 10 0 6 -7 10 -16 10 -8 0
-12 -4 -9 -10z"/>
<path d="M18605 3540 c-3 -5 3 -10 15 -10 12 0 30 -10 40 -22 23 -28 37 -17
22 17 -9 18 -19 25 -41 25 -16 0 -33 -4 -36 -10z"/>
<path d="M1520 3503 l-21 -27 21 -16 c16 -12 18 -18 8 -28 -6 -6 -23 -12 -36
-12 -21 0 -22 -2 -12 -15 7 -8 17 -15 23 -15 6 0 19 -7 29 -16 14 -14 20 -14
33 -4 18 15 19 42 3 58 -10 10 -10 17 0 32 17 28 15 48 -7 60 -16 8 -23 5 -41
-17z"/>
<path d="M17537 3523 c-11 -10 -8 -61 4 -68 7 -5 5 -14 -4 -28 -17 -26 -6 -67
18 -67 8 0 15 5 15 10 0 6 11 16 25 22 31 14 32 26 3 30 -31 4 -35 34 -6 41
l22 6 -29 31 c-30 31 -37 35 -48 23z"/>
<path d="M415 3511 c-7 -12 12 -24 25 -16 11 7 4 25 -10 25 -5 0 -11 -4 -15
-9z"/>
<path d="M540 3510 c0 -5 7 -10 15 -10 8 0 15 5 15 10 0 6 -7 10 -15 10 -8 0
-15 -4 -15 -10z"/>
<path d="M615 3477 c-8 -31 -4 -57 10 -60 14 -3 19 63 6 76 -7 7 -12 2 -16
-16z"/>
<path d="M467 3472 c-10 -10 -17 -24 -17 -30 0 -17 20 -15 26 3 4 8 12 15 20
15 8 0 14 7 14 15 0 21 -23 19 -43 -3z"/>
<path d="M1383 3475 c-9 -25 2 -27 22 -5 17 18 17 20 1 20 -9 0 -19 -7 -23
-15z"/>
<path d="M17680 3475 c0 -22 29 -75 40 -75 6 0 10 20 10 45 0 41 -2 45 -25 45
-16 0 -25 -6 -25 -15z"/>
<path d="M18466 3465 c-11 -29 -7 -67 7 -63 15 6 21 43 9 64 -8 15 -10 15 -16
-1z"/>
<path d="M18702 3455 c0 -16 2 -22 5 -12 2 9 2 23 0 30 -3 6 -5 -1 -5 -18z"/>
<path d="M18622 3444 c4 -21 22 -23 26 -1 2 10 -3 17 -13 17 -10 0 -15 -6 -13
-16z"/>
<path d="M520 3440 c0 -5 5 -10 10 -10 6 0 10 5 10 10 0 6 -4 10 -10 10 -5 0
-10 -4 -10 -10z"/>
<path d="M1377 3434 c-12 -13 -7 -44 7 -44 8 0 17 -7 20 -16 5 -14 26 -11 26
4 -1 14 -46 62 -53 56z"/>
<path d="M414 3389 c-8 -14 21 -43 35 -35 8 5 8 13 1 27 -12 21 -25 25 -36 8z"/>
<path d="M18570 3392 c-51 -5 -83 -38 -76 -80 3 -24 0 -37 -15 -51 -20 -18
-20 -18 6 -35 14 -9 26 -15 26 -14 1 2 2 30 3 63 2 75 8 85 52 85 22 0 37 6
41 15 7 20 5 21 -37 17z"/>
<path d="M18663 3393 c-18 -6 -16 -33 1 -33 19 0 31 19 20 30 -5 4 -15 5 -21
3z"/>
<path d="M512 3378 c5 -15 57 -18 61 -3 1 6 -13 11 -32 13 -24 3 -32 0 -29
-10z"/>
<path d="M17680 3374 c0 -8 5 -12 10 -9 6 4 8 11 5 16 -9 14 -15 11 -15 -7z"/>
<path d="M18110 3380 c0 -5 11 -12 25 -16 14 -3 25 -10 25 -15 0 -5 8 -18 18
-28 41 -47 42 -49 19 -56 -20 -7 -33 -10 -64 -14 -21 -2 -15 -42 7 -48 24 -6
26 -38 3 -47 -12 -5 -13 -10 -5 -18 9 -9 17 -7 32 7 24 22 26 41 5 53 -20 11
-9 44 14 40 26 -4 41 11 41 44 0 21 -6 31 -20 35 -11 3 -20 14 -20 24 0 11 -6
19 -14 19 -8 0 -16 7 -20 15 -6 16 -46 21 -46 5z"/>
<path d="M18200 3380 c0 -5 5 -10 10 -10 6 0 10 5 10 10 0 6 -4 10 -10 10 -5
0 -10 -4 -10 -10z"/>
<path d="M582 3346 c1 -10 8 -17 13 -17 15 1 12 24 -3 29 -9 3 -13 -2 -10 -12z"/>
<path d="M652 3348 c5 -15 28 -18 29 -3 0 6 -7 12 -17 13 -10 3 -15 -1 -12
-10z"/>
<path d="M17970 3354 c0 -3 16 -21 35 -40 19 -18 35 -38 35 -44 0 -5 14 -10
30 -10 41 0 38 15 -12 47 -24 16 -49 34 -56 40 -14 13 -32 17 -32 7z"/>
<path d="M18420 3340 c0 -5 4 -10 9 -10 6 0 13 5 16 10 3 6 -1 10 -9 10 -9 0
-16 -4 -16 -10z"/>
<path d="M738 3323 c-27 -7 -22 -33 6 -33 16 0 27 -7 31 -20 3 -11 10 -20 15
-20 11 0 23 51 13 60 -12 12 -46 18 -65 13z"/>
<path d="M1367 3253 c3 -43 9 -82 14 -87 12 -14 11 -56 -1 -56 -5 0 -10 -12
-10 -27 -1 -16 -7 -41 -14 -58 -9 -22 -10 -38 -3 -59 8 -23 7 -31 -6 -41 -10
-7 -17 -23 -17 -37 0 -13 -5 -29 -12 -36 -9 -9 -7 -12 9 -12 18 0 20 -5 15
-50 -4 -47 7 -66 23 -40 11 17 24 11 40 -20 9 -18 23 -30 35 -30 23 0 27 25 6
37 -8 4 -21 24 -29 45 -13 30 -13 39 -2 55 26 37 33 174 17 308 -14 111 -34
179 -55 183 -13 3 -15 -7 -10 -75z"/>
<path d="M17695 3274 c-9 -32 -21 -96 -26 -143 -5 -47 -11 -105 -15 -127 -4
-26 -2 -44 5 -48 20 -12 13 -82 -9 -97 -13 -9 -17 -18 -11 -27 6 -11 12 -10
25 4 15 14 19 15 27 3 5 -8 6 -21 3 -29 -6 -13 -9 -31 -13 -62 -1 -4 -10 -10
-21 -13 -21 -7 -28 -45 -9 -45 6 0 24 14 39 30 15 17 37 30 49 30 18 0 21 6
21 44 0 32 5 46 17 50 12 5 14 9 5 18 -15 15 -16 58 -2 58 6 0 10 9 10 20 0
25 -15 26 -30 3 -9 -15 -10 -11 -6 19 3 26 -3 57 -20 100 -25 65 -31 108 -14
108 6 0 10 -5 10 -12 0 -14 115 -128 129 -128 6 0 11 -7 11 -15 0 -8 5 -15 10
-15 6 0 15 -12 20 -26 9 -24 30 -25 30 -2 0 6 -37 48 -82 93 -112 112 -109
106 -111 187 -3 90 -19 99 -42 22z"/>
<path d="M18297 3313 c-2 -5 -1 -21 3 -38 l6 -30 13 23 c9 17 20 22 39 20 19
-2 28 2 30 15 3 14 -4 17 -42 17 -25 0 -47 -3 -49 -7z"/>
<path d="M17588 3299 c-21 -12 -24 -55 -4 -62 18 -7 46 24 46 51 0 24 -15 27
-42 11z"/>
<path d="M1025 3286 c-19 -14 -19 -15 8 -25 15 -6 37 -20 49 -31 12 -11 26
-20 31 -20 16 0 1 25 -21 35 -12 5 -22 18 -24 29 -4 25 -19 30 -43 12z"/>
<path d="M1240 3274 c0 -14 4 -23 10 -19 6 3 10 15 10 26 0 10 -4 19 -10 19
-5 0 -10 -12 -10 -26z"/>
<path d="M1470 3295 c0 -17 33 -65 44 -65 18 0 28 40 14 57 -10 13 -58 19 -58
8z"/>
<path d="M587 3242 c-15 -33 6 -52 31 -29 20 19 87 23 97 7 10 -16 25 -1 25
23 0 21 -5 22 -71 22 -65 0 -73 -2 -82 -23z"/>
<path d="M18364 3255 c-7 -18 3 -35 21 -35 21 0 28 19 15 35 -16 19 -29 19
-36 0z"/>
<path d="M18005 3240 c-3 -5 1 -10 9 -10 9 0 16 5 16 10 0 6 -4 10 -9 10 -6 0
-13 -4 -16 -10z"/>
<path d="M1198 3213 c-41 -43 -56 -53 -76 -53 -15 0 -22 6 -22 20 0 15 -7 20
-25 20 -16 0 -25 -6 -25 -15 0 -8 6 -15 13 -15 18 0 67 -42 67 -57 0 -6 -9
-15 -20 -18 -13 -4 -20 -15 -20 -31 0 -15 -6 -24 -15 -24 -8 0 -15 -7 -15 -16
0 -8 -13 -20 -30 -25 -31 -11 -42 -39 -15 -39 9 0 18 -7 21 -15 4 -8 18 -15
33 -15 21 0 30 -8 46 -42 25 -53 55 -64 55 -20 0 16 -10 41 -21 56 -27 35 -22
101 15 172 14 27 30 61 37 77 6 15 15 27 20 27 5 0 9 7 9 15 0 20 -12 19 -32
-2z"/>
<path d="M17880 3228 c0 -8 13 -41 50 -123 34 -75 51 -135 43 -149 -4 -6 -15
-17 -25 -24 -20 -15 -25 -76 -7 -88 15 -9 48 34 49 62 0 29 29 39 45 17 8 -10
17 -15 21 -11 4 4 1 14 -6 23 -7 9 -10 19 -6 22 4 4 11 1 15 -6 10 -16 31 -6
31 14 0 7 -7 15 -15 19 -8 3 -15 13 -15 22 0 9 -11 28 -25 43 -72 74 -67 65
-42 88 12 11 32 26 45 32 12 6 22 19 22 27 0 23 -33 13 -45 -14 -12 -28 -46
-29 -70 -2 -10 11 -24 20 -31 20 -7 0 -18 8 -23 18 -6 9 -11 14 -11 10z"/>
<path d="M780 3176 c0 -26 15 -43 24 -28 7 12 -4 52 -15 52 -5 0 -9 -11 -9
-24z"/>
<path d="M338 3169 c-24 -25 -23 -62 3 -85 15 -13 24 -16 36 -8 28 18 39 42
25 56 -10 10 -14 8 -18 -10 -10 -36 -34 -27 -34 13 0 24 5 35 15 35 8 0 15 5
15 10 0 16 -23 10 -42 -11z"/>
<path d="M450 3180 c0 -5 5 -10 10 -10 6 0 10 5 10 10 0 6 -4 10 -10 10 -5 0
-10 -4 -10 -10z"/>
<path d="M716 3175 c-10 -27 -7 -46 12 -70 38 -48 78 -73 127 -81 47 -7 49 -6
35 11 -13 15 -12 19 5 32 19 15 19 15 -5 9 -74 -20 -84 -19 -118 13 -17 17
-32 41 -32 54 0 12 -4 28 -9 35 -7 11 -10 10 -15 -3z"/>
<path d="M910 3181 c0 -6 5 -13 10 -16 6 -3 10 1 10 9 0 9 -4 16 -10 16 -5 0
-10 -4 -10 -9z"/>
<path d="M18300 3181 c0 -5 -3 -16 -6 -25 -4 -11 -1 -16 10 -16 10 0 16 9 16
25 0 14 -4 25 -10 25 -5 0 -10 -4 -10 -9z"/>
<path d="M18630 3175 c0 -13 4 -14 20 -5 11 6 20 13 20 15 0 3 -9 5 -20 5 -11
0 -20 -7 -20 -15z"/>
<path d="M18720 3180 c0 -6 7 -13 15 -16 17 -7 20 -49 5 -59 -5 -3 -10 -13
-10 -21 0 -12 4 -12 25 2 28 18 33 58 11 87 -14 18 -46 23 -46 7z"/>
<path d="M18366 3165 c-3 -9 -6 -26 -6 -37 0 -27 24 -17 28 11 5 29 -13 49
-22 26z"/>
<path d="M1339 3148 c-6 -13 -47 -58 -91 -101 -73 -71 -89 -96 -63 -100 6 -1
11 7 13 18 2 11 32 42 68 70 35 27 64 53 64 57 0 4 9 10 20 13 14 4 20 15 20
36 0 35 -15 38 -31 7z"/>
<path d="M487 3154 c-8 -8 3 -34 14 -34 11 0 12 27 0 34 -4 3 -11 3 -14 0z"/>
<path d="M948 3143 c7 -3 16 -2 19 1 4 3 -2 6 -13 5 -11 0 -14 -3 -6 -6z"/>
<path d="M18594 3135 c-4 -9 -2 -21 3 -26 7 -7 12 -3 16 10 6 25 -11 39 -19
16z"/>
<path d="M18695 3130 c-7 -12 2 -30 16 -30 12 0 12 27 0 35 -5 3 -12 1 -16 -5z"/>
<path d="M810 3120 c0 -14 26 -23 41 -15 8 6 7 10 -2 16 -19 12 -39 11 -39 -1z"/>
<path d="M1025 3110 c3 -5 12 -10 20 -10 8 0 17 5 20 10 4 6 -5 10 -20 10 -15
0 -24 -4 -20 -10z"/>
<path d="M18030 3110 c0 -13 30 -13 50 0 11 7 7 10 -17 10 -18 0 -33 -4 -33
-10z"/>
<path d="M18268 3113 c7 -3 16 -2 19 1 4 3 -2 6 -13 5 -11 0 -14 -3 -6 -6z"/>
<path d="M18330 3085 c0 -8 5 -15 10 -15 6 0 10 7 10 15 0 8 -4 15 -10 15 -5
0 -10 -7 -10 -15z"/>
<path d="M515 3070 c-4 -11 -3 -34 0 -51 6 -27 10 -30 33 -24 15 4 34 13 43
21 24 21 56 17 64 -8 l8 -23 4 22 c6 30 -14 63 -37 63 -11 0 -28 -10 -39 -21
-23 -25 -51 -19 -51 10 0 28 -17 35 -25 11z"/>
<path d="M18467 3083 c-15 -14 -6 -34 21 -46 15 -6 32 -17 37 -23 6 -7 20 -15
32 -19 18 -5 24 -1 29 19 3 13 4 32 2 42 -4 22 -28 31 -28 10 0 -27 -19 -28
-53 -2 -19 14 -37 23 -40 19z"/>
<path d="M18165 3067 c-16 -12 -11 -15 45 -20 63 -7 89 -3 54 8 -10 4 -27 11
-36 16 -24 12 -41 11 -63 -4z"/>
<path d="M18400 2979 c0 -5 5 -7 10 -4 6 3 10 8 10 11 0 2 -4 4 -10 4 -5 0
-10 -5 -10 -11z"/>
<path d="M715 2950 c3 -5 13 -10 21 -10 8 0 14 5 14 10 0 6 -9 10 -21 10 -11
0 -17 -4 -14 -10z"/>
<path d="M840 2950 c-18 -11 -16 -12 70 -15 30 -1 56 -7 58 -14 5 -14 32 -14
32 0 0 23 -36 38 -90 39 -30 0 -62 -5 -70 -10z"/>
<path d="M18185 2950 c3 -5 26 -10 51 -10 28 0 43 4 39 10 -3 6 -26 10 -51 10
-28 0 -43 -4 -39 -10z"/>
<path d="M18310 2950 c0 -5 16 -10 35 -10 19 0 35 5 35 10 0 6 -16 10 -35 10
-19 0 -35 -4 -35 -10z"/>
<path d="M18100 2923 c0 -8 35 -30 113 -71 58 -32 62 -52 8 -52 -32 0 -44 -6
-66 -31 -14 -18 -25 -39 -23 -47 4 -20 28 -28 28 -10 0 8 11 25 25 38 20 19
27 21 39 11 19 -16 36 -6 36 20 0 10 7 19 15 19 8 0 15 5 15 11 0 18 -73 80
-102 86 -15 3 -33 12 -39 19 -12 15 -49 19 -49 7z"/>
<path d="M17800 2890 c0 -11 6 -20 14 -20 8 0 16 -12 18 -27 2 -14 9 -28 16
-31 18 -6 15 45 -3 52 -8 3 -15 15 -15 26 0 11 -7 20 -15 20 -8 0 -15 -9 -15
-20z"/>
<path d="M913 2893 c-24 -9 -13 -24 15 -21 15 2 26 8 25 13 -2 12 -23 16 -40
8z"/>
<path d="M18070 2861 c0 -6 5 -13 10 -16 6 -3 10 1 10 9 0 9 -4 16 -10 16 -5
0 -10 -4 -10 -9z"/>
<path d="M855 2850 c-4 -6 5 -10 19 -10 14 0 26 5 26 10 0 6 -9 10 -19 10 -11
0 -23 -4 -26 -10z"/>
<path d="M1437 2833 c-13 -12 -7 -23 13 -23 11 0 20 7 20 15 0 15 -21 21 -33
8z"/>
<path d="M810 2811 c0 -10 -7 -21 -15 -25 -9 -3 -15 -18 -15 -35 0 -16 6 -31
15 -35 12 -4 15 3 15 34 0 44 13 52 31 19 8 -15 14 -18 22 -10 18 18 37 13 37
-9 0 -11 -4 -20 -10 -20 -5 0 -10 -7 -10 -15 0 -13 4 -14 22 -4 18 10 24 8 35
-7 10 -14 16 -15 25 -6 9 9 7 22 -10 57 -18 38 -26 45 -51 45 -16 0 -36 7 -45
15 -21 21 -46 19 -46 -4z"/>
<path d="M18100 2811 c0 -11 5 -23 10 -26 6 -3 10 3 10 14 0 11 -4 23 -10 26
-5 3 -10 -3 -10 -14z"/>
<path d="M980 2785 c0 -8 5 -15 10 -15 6 0 10 7 10 15 0 8 -4 15 -10 15 -5 0
-10 -7 -10 -15z"/>
<path d="M17870 2786 c0 -8 -3 -23 -7 -33 -6 -17 -6 -17 10 -1 19 18 23 48 7
48 -5 0 -10 -6 -10 -14z"/>
<path d="M18300 2769 c0 -13 -12 -35 -27 -51 -35 -37 -26 -44 15 -12 32 25 43
66 22 79 -6 3 -10 -4 -10 -16z"/>
<path d="M1200 2741 c-33 -35 -62 -92 -55 -110 4 -11 16 -4 45 24 22 22 40 43
40 49 0 5 7 17 16 27 17 18 12 40 -9 38 -7 -1 -23 -13 -37 -28z"/>
<path d="M17887 2733 c-15 -14 -6 -42 23 -73 23 -25 34 -30 42 -22 9 9 7 16
-5 30 -9 10 -17 25 -17 33 0 26 -29 47 -43 32z"/>
<path d="M17770 2701 c0 -19 6 -34 15 -37 8 -4 15 -16 15 -29 0 -12 7 -28 15
-35 8 -7 15 -19 15 -26 0 -8 9 -23 19 -33 11 -11 21 -32 23 -47 2 -15 9 -29
16 -32 17 -5 15 43 -3 62 -8 8 -15 19 -15 25 0 11 -44 97 -59 115 -5 6 -11 22
-13 35 -5 38 -28 39 -28 2z"/>
<path d="M18200 2715 c12 -15 30 -12 30 6 0 5 -10 9 -21 9 -18 0 -19 -2 -9
-15z"/>
<path d="M1307 2703 c-10 -10 -8 -53 2 -53 10 0 21 24 21 46 0 15 -12 19 -23
7z"/>
<path d="M18170 2655 c-1 -36 -15 -49 -40 -35 -26 14 -40 1 -40 -38 0 -32 47
-79 63 -62 9 10 9 14 0 17 -7 3 -13 12 -13 20 0 12 3 13 15 3 22 -18 35 -3 35
43 0 43 -19 93 -20 52z"/>
<path d="M915 2628 c-8 -32 1 -64 26 -89 28 -28 52 -23 71 16 14 29 15 35 3
45 -8 7 -26 9 -44 5 -25 -5 -30 -3 -39 22 l-10 28 -7 -27z"/>
<path d="M1270 2614 c0 -22 2 -25 15 -14 8 7 15 19 15 26 0 8 -7 14 -15 14
-10 0 -15 -10 -15 -26z"/>
<path d="M1245 2567 c-4 -10 -5 -21 -1 -24 10 -10 18 4 13 24 -4 17 -4 17 -12
0z"/>
<path d="M1210 2485 c0 -14 5 -25 10 -25 6 0 10 11 10 25 0 14 -4 25 -10 25
-5 0 -10 -11 -10 -25z"/>
<path d="M17907 2434 c-4 -4 -7 -32 -7 -61 0 -70 24 -68 28 2 3 46 -7 73 -21
59z"/>
<path d="M1258 2419 c-24 -14 -23 -51 3 -67 26 -17 37 -7 21 18 -17 28 -15 35
11 48 20 10 21 11 2 11 -11 0 -28 -4 -37 -10z"/>
<path d="M17830 2413 c0 -9 -8 -25 -17 -35 -22 -24 -3 -49 25 -32 23 15 29 84
8 84 -9 0 -16 -8 -16 -17z"/>
<path d="M1182 2380 c0 -19 2 -27 5 -17 2 9 2 25 0 35 -3 9 -5 1 -5 -18z"/>
<path d="M1336 2375 c-4 -14 -4 -31 0 -36 8 -14 -55 -69 -79 -69 -10 0 -21 9
-24 20 -5 19 -33 29 -33 12 0 -17 45 -61 73 -71 34 -13 45 -38 24 -58 -15 -15
-17 -14 -28 10 -16 36 -29 34 -29 -4 0 -29 1 -30 43 -27 l42 3 -2 56 c-2 44 2
62 17 82 13 16 20 40 20 66 0 46 -14 55 -24 16z"/>
<path d="M17744 2364 c-4 -14 -2 -30 5 -37 8 -8 11 -1 11 26 0 43 -7 48 -16
11z"/>
<path d="M17770 2296 c0 -8 7 -16 15 -20 10 -4 15 1 15 14 0 11 -7 20 -15 20
-8 0 -15 -6 -15 -14z"/>
<path d="M17870 2294 c0 -9 5 -14 12 -12 18 6 21 28 4 28 -9 0 -16 -7 -16 -16z"/>
<path d="M17795 2244 c-10 -15 -18 -41 -19 -58 -1 -29 1 -31 40 -34 48 -4 64
17 40 53 -9 14 -11 27 -5 36 14 22 11 29 -15 29 -15 0 -30 -10 -41 -26z m45
-36 c0 -22 -17 -41 -29 -34 -19 12 -13 46 9 46 11 0 20 -6 20 -12z"/>
<path d="M1240 1995 c0 -12 7 -15 33 -10 36 6 63 -7 52 -25 -5 -8 -22 -10 -52
-6 -42 5 -44 4 -41 -17 2 -18 10 -23 47 -25 71 -5 105 40 59 79 -29 23 -98 26
-98 4z"/>
<path d="M17762 1990 c-17 -27 -15 -37 8 -60 24 -24 72 -26 94 -4 24 23 19 31
-14 26 -16 -2 -42 -1 -57 3 -27 6 -27 7 -9 21 11 8 33 14 50 14 41 0 23 14
-22 17 -28 2 -41 -3 -50 -17z"/>
<path d="M1231 1863 c-29 -27 -29 -30 -24 -105 3 -43 10 -78 14 -78 5 0 9 38
9 85 l0 85 35 0 c37 0 49 22 19 34 -22 8 -20 9 -53 -21z"/>
<path d="M17813 1883 c-28 -11 -13 -33 22 -33 28 0 35 -4 35 -20 0 -11 7 -20
15 -20 23 0 18 28 -10 55 -24 25 -37 28 -62 18z"/>
<path d="M1964 1865 c-4 -8 -13 -15 -21 -15 -10 0 -13 -9 -11 -27 3 -25 8 -28
42 -31 28 -2 37 0 34 10 -3 7 -14 14 -26 16 -28 4 -29 28 -1 35 12 3 18 10 14
16 -9 16 -25 13 -31 -4z"/>
<path d="M17050 1853 c-6 -16 -16 -38 -22 -51 -9 -17 -9 -25 0 -34 9 -9 12 -6
12 15 0 17 7 30 18 34 9 4 21 12 25 20 9 15 57 18 57 2 0 -5 -13 -15 -30 -20
-38 -14 -30 -29 15 -29 23 0 37 6 43 18 11 21 5 42 -13 42 -7 0 -15 7 -19 15
-3 9 -19 15 -41 15 -30 0 -37 -5 -45 -27z"/>
<path d="M2010 1860 c0 -5 7 -10 15 -10 8 0 15 5 15 10 0 6 -7 10 -15 10 -8 0
-15 -4 -15 -10z"/>
<path d="M5504 1838 c-4 -6 -2 -14 4 -16 39 -13 42 -29 42 -222 l0 -188 -27
-20 c-16 -11 -24 -24 -20 -29 11 -11 163 -11 174 0 7 8 -17 32 -40 40 -11 3
-14 134 -3 145 4 3 35 7 70 7 99 2 162 50 173 132 8 62 -18 106 -81 137 -48
23 -65 26 -169 26 -79 0 -118 -4 -123 -12z m281 -55 c36 -55 28 -144 -17 -180
-18 -15 -110 -25 -127 -14 -9 6 -13 33 -13 92 0 143 -8 129 71 129 64 0 70 -2
86 -27z"/>
<path d="M5997 1843 c-12 -11 -8 -21 12 -28 11 -3 24 -20 30 -37 11 -32 15
-316 5 -354 -3 -12 -17 -27 -31 -33 -44 -20 -12 -36 72 -36 85 0 114 15 68 37
-27 13 -28 16 -31 101 l-3 87 29 0 c26 0 34 -9 87 -106 63 -115 81 -130 147
-119 43 8 58 22 31 31 -67 22 -75 29 -113 98 -22 39 -40 77 -40 83 0 7 18 25
41 40 47 31 69 68 69 115 0 47 -23 75 -85 104 -47 21 -68 24 -168 24 -62 0
-117 -3 -120 -7z m277 -52 c26 -28 31 -91 12 -129 -19 -36 -42 -45 -112 -40
l-49 3 -3 79 c-2 44 -1 85 2 93 4 9 25 13 69 13 50 0 68 -4 81 -19z"/>
<path d="M6552 1841 c-10 -6 -7 -13 15 -29 l28 -20 3 -173 c2 -95 1 -182 -2
-194 -3 -12 -18 -27 -32 -34 -21 -9 -24 -15 -15 -24 16 -16 336 -14 355 3 14
11 31 78 23 86 -2 3 -23 -11 -47 -31 -39 -33 -47 -35 -110 -35 -102 0 -100 -1
-100 95 0 46 4 87 10 90 5 3 33 6 61 7 38 0 56 -5 73 -21 28 -27 36 -19 36 35
0 51 -11 60 -44 39 -16 -11 -41 -15 -78 -13 l-53 3 0 90 0 90 70 3 c67 3 72 1
100 -28 41 -43 55 -39 55 14 0 37 -4 45 -22 50 -35 9 -311 7 -326 -3z"/>
<path d="M7075 1840 c-4 -6 5 -20 19 -31 l26 -20 0 -189 0 -188 -27 -20 c-16
-11 -25 -24 -21 -28 13 -12 136 -10 149 3 9 9 4 15 -20 27 l-31 17 0 124 c0
68 4 126 9 129 16 10 48 -40 107 -166 32 -70 65 -130 72 -132 25 -10 40 7 60
67 52 158 106 256 128 234 9 -8 6 -245 -2 -259 -3 -5 -17 -14 -32 -19 -46 -18
-9 -34 78 -34 90 0 119 15 73 37 l-28 13 -3 192 -2 191 31 23 c38 27 25 39
-41 39 -60 0 -84 -19 -100 -77 -7 -26 -21 -64 -31 -83 -10 -19 -25 -55 -34
-80 -61 -164 -80 -168 -140 -30 -55 129 -124 258 -140 264 -26 10 -93 7 -100
-4z"/>
<path d="M7832 1843 c-10 -4 -5 -14 17 -34 l31 -28 -2 -188 -3 -188 -28 -13
c-19 -9 -26 -17 -19 -24 15 -15 124 -21 157 -8 29 11 29 12 10 25 -47 33 -46
28 -43 222 l3 185 28 20 c15 11 25 24 21 29 -5 9 -149 11 -172 2z"/>
<path d="M8151 1843 c-10 -4 -5 -13 20 -34 l34 -28 2 -133 c1 -73 5 -147 8
-164 24 -136 261 -171 347 -52 21 30 23 46 28 191 l5 159 28 24 c16 13 25 29
22 34 -7 11 -124 14 -151 3 -14 -5 -12 -10 17 -34 l34 -28 0 -143 c0 -119 -3
-149 -18 -176 -34 -62 -51 -72 -120 -72 -58 0 -66 3 -93 31 l-29 30 -3 168
c-3 173 0 190 40 203 6 2 8 10 4 16 -7 12 -147 16 -175 5z"/>
<path d="M8782 1841 c-10 -6 -7 -13 15 -29 l28 -20 3 -173 c2 -95 1 -182 -2
-194 -3 -12 -18 -27 -32 -34 -42 -19 -15 -34 60 -35 75 -1 107 16 62 33 -38
15 -48 52 -44 161 4 104 11 128 34 109 14 -11 134 -253 134 -270 0 -4 9 -13
21 -19 27 -15 42 -2 59 52 15 49 45 121 64 158 7 14 16 37 20 51 6 27 30 44
47 33 11 -6 12 -234 1 -250 -4 -6 -18 -17 -31 -23 -40 -22 -8 -36 79 -36 85 0
106 9 75 30 -46 32 -45 29 -45 215 0 163 2 182 19 199 10 10 24 20 32 23 30
10 -6 28 -56 28 -61 0 -78 -12 -95 -67 -7 -21 -27 -74 -45 -118 -18 -44 -41
-102 -52 -129 -33 -88 -58 -75 -122 65 -80 175 -102 218 -117 234 -17 16 -90
20 -112 6z"/>
<path d="M9975 1830 c-22 -11 -45 -19 -51 -20 -12 0 -54 -44 -78 -81 -26 -41
-38 -125 -26 -188 15 -80 49 -125 123 -162 34 -17 76 -41 92 -53 72 -54 187
-99 237 -94 38 4 43 21 7 28 -13 4 -45 16 -70 28 -83 39 -97 78 -38 103 58 24
109 122 109 210 0 77 -72 209 -115 209 -5 0 -27 9 -48 20 -46 25 -90 25 -142
0z m171 -54 c80 -93 80 -267 -1 -350 -33 -34 -39 -36 -98 -36 -58 0 -66 3 -95
33 -43 45 -62 96 -62 169 0 91 16 137 64 185 42 41 44 42 101 39 54 -3 62 -7
91 -40z"/>
<path d="M10444 1838 c-4 -6 -2 -14 5 -16 8 -3 22 -13 32 -23 17 -17 19 -35
19 -146 0 -140 11 -196 43 -231 85 -92 268 -79 321 23 19 37 26 118 26 312 0
14 13 36 31 52 26 24 28 29 14 35 -29 11 -143 7 -151 -6 -4 -6 -2 -14 5 -16 8
-3 22 -13 32 -23 17 -17 19 -35 19 -159 0 -147 -6 -176 -49 -222 -22 -25 -32
-28 -87 -28 -58 0 -64 2 -92 35 -38 43 -45 84 -40 244 3 121 3 123 31 143 22
16 25 23 15 29 -21 14 -166 11 -174 -3z"/>
<path d="M11682 1843 c-10 -4 -5 -14 17 -34 l31 -28 -2 -188 -3 -188 -28 -13
c-22 -11 -26 -17 -17 -26 7 -7 64 -10 183 -9 189 3 197 6 197 65 0 35 -6 35
-50 -2 -31 -28 -41 -30 -110 -30 -46 0 -81 5 -88 12 -8 8 -12 66 -12 196 l0
183 30 28 c17 15 27 30 24 34 -8 8 -152 8 -172 0z"/>
<path d="M12192 1843 c-9 -4 -3 -14 20 -33 l33 -28 3 -162 c2 -90 1 -174 -3
-187 -3 -13 -20 -32 -37 -43 -29 -17 -30 -20 -12 -27 26 -10 160 -10 171 0 4
5 -4 18 -20 29 l-27 20 0 188 c0 193 3 209 42 222 6 2 8 10 4 16 -7 12 -147
16 -174 5z"/>
<path d="M12520 1830 c-24 -24 -26 -68 -5 -76 9 -4 27 6 45 26 25 27 35 31 72
28 l43 -3 3 -195 3 -195 -28 -22 c-15 -12 -24 -26 -19 -30 10 -10 162 -10 173
0 4 5 -7 19 -25 33 l-32 25 0 179 c0 98 3 185 6 194 4 11 19 16 50 16 36 0 49
-5 71 -30 37 -42 63 -40 63 4 0 63 -10 66 -216 66 -171 0 -185 -1 -204 -20z"/>
<path d="M13052 1841 c-11 -6 -6 -14 18 -31 17 -12 66 -66 108 -119 l77 -96 4
-90 c3 -88 3 -90 -25 -112 -16 -12 -26 -25 -23 -28 13 -12 126 -16 154 -5 29
11 29 12 10 25 -11 8 -26 19 -32 25 -15 13 -18 129 -4 176 11 38 118 173 172
216 48 39 39 48 -51 48 -82 0 -103 -11 -66 -35 36 -24 33 -50 -16 -122 -57
-84 -71 -83 -137 6 -28 38 -51 75 -51 84 0 8 11 22 25 31 14 9 23 21 20 26 -8
12 -165 13 -183 1z"/>
<path d="M1312 1760 l1 -85 8 63 c4 35 4 73 -1 85 -6 15 -9 -5 -8 -63z"/>
<path d="M2055 1830 c-9 -15 4 -80 15 -80 13 0 13 77 1 85 -5 3 -13 0 -16 -5z"/>
<path d="M11261 1773 c-13 -32 -29 -71 -36 -88 -8 -16 -30 -70 -50 -120 -48
-122 -68 -158 -94 -170 -62 -28 26 -61 95 -35 l27 11 -20 22 c-24 26 -17 68
17 105 18 19 31 22 95 22 84 0 94 -6 115 -70 13 -41 13 -43 -10 -60 l-25 -19
28 -10 c36 -14 98 -14 134 0 27 10 27 11 8 24 -11 8 -25 18 -31 24 -6 5 -34
64 -63 132 -29 68 -61 143 -72 167 -11 24 -27 61 -35 82 -12 30 -22 40 -38 40
-18 0 -27 -12 -45 -57z m80 -151 c11 -24 19 -47 19 -52 0 -14 -74 -22 -103
-11 -34 13 -34 26 3 85 27 42 33 46 47 35 9 -8 24 -33 34 -57z"/>
<path d="M17783 1760 c0 -36 2 -50 4 -32 2 17 2 47 0 65 -2 17 -4 3 -4 -33z"/>
<path d="M17877 1726 c-10 -26 -8 -66 2 -66 15 0 22 35 13 60 -8 20 -9 21 -15
6z"/>
<path d="M2033 1719 c-7 -7 -13 -17 -13 -21 0 -10 -82 -88 -92 -88 -5 0 -8 -7
-8 -15 0 -18 -12 -19 -27 -4 -15 15 -51 2 -69 -26 -14 -21 -14 -26 1 -54 8
-17 20 -31 25 -31 6 0 10 -20 10 -45 0 -37 -3 -45 -18 -45 -10 0 -23 5 -30 12
-8 8 -12 9 -12 1 0 -16 29 -43 45 -43 21 0 45 41 45 77 0 38 12 41 46 14 24
-19 26 -19 54 -3 52 30 35 55 -48 73 -78 16 -62 59 22 59 55 0 66 8 66 49 0
20 5 42 11 48 6 6 9 20 7 32 -2 18 -5 20 -15 10z"/>
<path d="M983 1704 c-8 -20 -4 -21 45 -16 53 5 51 26 -2 29 -24 1 -39 -4 -43
-13z"/>
<path d="M18040 1700 c0 -5 18 -10 40 -10 22 0 40 5 40 10 0 6 -18 10 -40 10
-22 0 -40 -4 -40 -10z"/>
<path d="M2480 1664 c-15 -38 -13 -44 19 -44 35 0 55 22 46 50 -10 30 -53 27
-65 -6z"/>
<path d="M16564 1676 c-13 -33 0 -51 39 -54 42 -4 43 -2 22 38 -17 32 -52 41
-61 16z"/>
<path d="M17245 1680 c-9 -14 -7 -16 28 -24 24 -6 28 -4 25 11 -4 21 -43 30
-53 13z"/>
<path d="M1066 1664 c-4 -10 -13 -13 -27 -9 -14 5 -27 -1 -45 -20 l-25 -27 22
-24 c20 -22 31 -24 108 -24 75 0 88 -3 99 -20 7 -12 21 -19 35 -17 18 2 22 -3
22 -25 0 -14 3 -30 8 -34 4 -4 7 -20 7 -36 0 -19 4 -27 11 -22 7 4 9 23 5 50
-4 34 -2 44 9 44 26 0 63 22 68 41 4 16 15 19 65 19 75 0 91 -6 103 -38 l10
-25 16 23 c16 22 15 24 -10 46 -26 22 -33 23 -126 17 -91 -5 -101 -4 -126 16
-35 27 -45 26 -70 -3 -19 -22 -23 -23 -85 -14 -36 5 -78 10 -95 11 -39 3 -44
22 -5 22 35 1 65 27 57 49 -8 20 -23 20 -31 0z"/>
<path d="M1800 1670 c0 -5 5 -10 10 -10 6 0 10 5 10 10 0 6 -4 10 -10 10 -5 0
-10 -4 -10 -10z"/>
<path d="M16940 1660 c-9 -16 -8 -22 5 -26 21 -8 39 10 32 30 -9 22 -24 20
-37 -4z"/>
<path d="M2130 1655 c-11 -13 -8 -15 14 -15 16 0 26 5 26 15 0 8 -6 15 -14 15
-7 0 -19 -7 -26 -15z"/>
<path d="M18007 1658 c-2 -7 4 -23 15 -35 19 -21 19 -22 1 -30 -28 -15 -110
-9 -130 9 -10 8 -30 18 -46 22 -23 5 -29 2 -39 -19 -7 -16 -23 -28 -39 -32
-24 -5 -26 -7 -16 -33 7 -19 20 -30 39 -34 20 -4 28 -12 28 -26 0 -18 3 -19
20 -10 11 6 20 21 20 33 1 42 41 58 127 53 86 -5 116 3 132 33 15 27 -28 76
-58 66 -10 -3 -22 -1 -26 5 -8 14 -22 13 -28 -2z m80 -54 c-3 -3 -12 -4 -19
-1 -8 3 -5 6 6 6 11 1 17 -2 13 -5z"/>
<path d="M18136 1662 c-2 -4 -1 -14 5 -22 7 -12 9 -10 9 8 0 23 -5 28 -14 14z"/>
<path d="M17086 1652 c-3 -3 -6 -18 -6 -33 0 -29 15 -39 59 -39 40 0 91 -20
91 -35 0 -14 -5 -16 -87 -35 -40 -9 -53 -16 -53 -30 0 -10 7 -20 15 -24 25 -9
17 -29 -34 -83 -40 -42 -68 -131 -51 -163 16 -30 30 -15 30 32 0 55 32 118 87
173 59 57 83 59 83 7 0 -25 7 -45 18 -55 16 -15 20 -15 40 -1 12 8 22 25 22
36 0 20 -1 20 -18 5 -19 -18 -42 -22 -43 -9 0 4 -2 22 -4 41 -2 25 2 35 14 38
9 2 24 17 33 33 14 25 14 31 2 49 -23 33 -50 44 -76 30 -16 -9 -23 -9 -26 -1
-5 16 -89 72 -96 64z"/>
<path d="M1871 1634 c0 -11 3 -14 6 -6 3 7 2 16 -1 19 -3 4 -6 -2 -5 -13z"/>
<path d="M2847 1643 c-10 -10 -8 -23 3 -23 19 0 90 -53 90 -67 0 -7 7 -16 15
-19 8 -3 17 -14 20 -25 4 -10 11 -19 17 -19 6 0 16 -7 22 -16 17 -23 79 -24
84 -1 2 10 1 25 -3 34 -5 14 -8 13 -21 -6 -11 -15 -22 -20 -35 -16 -26 9 -69
52 -69 70 0 8 -5 15 -10 15 -6 0 -16 11 -22 25 -6 14 -19 25 -28 25 -10 0 -23
7 -30 15 -14 16 -23 19 -33 8z"/>
<path d="M16223 1637 c-4 -8 -16 -18 -27 -24 -11 -6 -14 -13 -8 -17 6 -3 17 1
25 9 22 21 47 19 47 -5 0 -11 7 -20 15 -20 20 0 18 20 -4 48 -22 25 -36 28
-48 9z"/>
<path d="M17310 1633 c1 -18 18 -35 24 -24 4 6 4 16 1 21 -7 12 -25 13 -25 3z"/>
<path d="M2404 1605 c-4 -8 -15 -15 -25 -15 -25 0 -99 -37 -99 -50 0 -18 50
-23 68 -7 50 47 61 55 86 61 14 3 26 11 26 16 0 16 -50 11 -56 -5z"/>
<path d="M3036 1612 c-3 -5 0 -26 6 -48 11 -36 12 -37 16 -12 6 46 30 42 83
-13 43 -45 52 -50 86 -47 33 3 38 7 41 31 4 30 -14 36 -33 11 -16 -23 -40 -13
-100 41 -46 42 -87 57 -99 37z"/>
<path d="M15975 1584 c-57 -52 -83 -67 -100 -60 -8 3 -15 12 -15 21 0 8 -7 15
-15 15 -15 0 -20 -26 -9 -54 4 -11 19 -16 43 -16 31 0 44 8 81 46 36 36 50 45
73 41 29 -4 53 15 42 33 -13 22 -60 10 -100 -26z"/>
<path d="M2820 1599 c0 -5 5 -7 10 -4 6 3 10 8 10 11 0 2 -4 4 -10 4 -5 0 -10
-5 -10 -11z"/>
<path d="M16658 1603 c7 -3 16 -2 19 1 4 3 -2 6 -13 5 -11 0 -14 -3 -6 -6z"/>
<path d="M2650 1561 c0 -17 5 -33 10 -36 6 -3 10 0 10 8 0 8 8 18 17 21 13 5
31 -7 65 -43 47 -50 73 -60 111 -45 12 4 14 15 10 42 -8 52 -23 64 -23 19 0
-34 -2 -37 -28 -37 -20 0 -36 11 -62 44 -34 43 -55 56 -92 56 -13 0 -18 -8
-18 -29z"/>
<path d="M16359 1549 c-21 -22 -39 -44 -39 -49 0 -12 -36 -18 -53 -8 -12 6
-15 17 -10 40 5 23 3 30 -8 26 -14 -5 -31 -65 -24 -85 2 -7 21 -13 42 -13 32
0 43 7 84 51 32 35 53 50 63 46 19 -8 21 -58 4 -75 -13 -13 -13 -13 50 -17 46
-3 59 12 15 17 -26 3 -28 7 -31 56 -3 48 -5 52 -28 52 -17 0 -39 -14 -65 -41z"/>
<path d="M1623 1566 c-7 -8 -18 -16 -25 -18 -10 -4 -10 -10 -2 -29 12 -26 70
-54 80 -38 3 5 18 9 33 9 37 0 42 7 26 37 -12 23 -12 28 3 39 9 8 12 14 7 14
-6 0 -16 -5 -23 -12 -9 -9 -18 -9 -37 0 -33 15 -47 15 -62 -2z m42 -26 c0 -22
-29 -18 -33 3 -3 14 1 18 15 15 10 -2 18 -10 18 -18z"/>
<path d="M2065 1570 c3 -5 17 -10 31 -10 13 0 24 5 24 10 0 6 -14 10 -31 10
-17 0 -28 -4 -24 -10z"/>
<path d="M16720 1570 c0 -5 7 -10 15 -10 24 0 17 -30 -10 -40 -28 -11 -34 -30
-9 -30 21 0 114 43 114 52 0 4 -12 10 -27 13 -16 4 -36 10 -45 16 -23 12 -38
12 -38 -1z"/>
<path d="M16980 1570 c0 -5 11 -10 24 -10 14 0 28 5 31 10 4 6 -7 10 -24 10
-17 0 -31 -4 -31 -10z"/>
<path d="M17360 1560 c23 -19 24 -21 8 -34 -29 -22 -22 -39 12 -32 17 3 39 1
49 -6 13 -8 25 -7 47 3 34 17 45 56 17 66 -10 4 -21 11 -25 17 -5 7 -19 6 -43
-3 -27 -9 -40 -10 -48 -2 -6 6 -18 11 -26 11 -11 0 -9 -6 9 -20z m110 -14 c0
-7 -7 -19 -15 -26 -13 -11 -15 -8 -15 14 0 16 5 26 15 26 8 0 15 -6 15 -14z"/>
<path d="M17580 1571 c0 -5 -9 -11 -21 -14 -13 -4 -20 -12 -17 -24 5 -25 32
-23 36 3 2 14 14 24 40 31 l37 10 -37 2 c-21 0 -38 -3 -38 -8z"/>
<path d="M17688 1573 c6 -2 18 -2 25 0 6 3 1 5 -13 5 -14 0 -19 -2 -12 -5z"/>
<path d="M16141 1544 c0 -11 3 -14 6 -6 3 7 2 16 -1 19 -3 4 -6 -2 -5 -13z"/>
<path d="M2132 1527 c-22 -24 -20 -37 5 -37 18 0 55 39 48 50 -10 16 -30 11
-53 -13z"/>
<path d="M2446 1542 c-3 -5 9 -13 28 -16 19 -4 37 -13 40 -21 3 -8 17 -15 31
-15 14 0 28 -7 31 -15 7 -18 99 -21 110 -4 9 15 -17 30 -32 18 -14 -11 -64 -2
-79 15 -22 24 -119 53 -129 38z"/>
<path d="M3310 1540 c0 -5 12 -10 26 -10 14 0 23 4 19 10 -3 6 -15 10 -26 10
-10 0 -19 -4 -19 -10z"/>
<path d="M15750 1540 c0 -5 11 -10 25 -10 14 0 25 5 25 10 0 6 -11 10 -25 10
-14 0 -25 -4 -25 -10z"/>
<path d="M16605 1540 c-4 -6 5 -10 20 -10 15 0 24 4 20 10 -3 6 -12 10 -20 10
-8 0 -17 -4 -20 -10z"/>
<path d="M16917 1544 c-15 -15 15 -44 44 -44 l30 0 -18 25 c-17 23 -43 32 -56
19z"/>
<path d="M3540 1533 c8 -3 27 -14 42 -24 14 -11 38 -19 52 -19 16 0 26 -6 26
-15 0 -9 -9 -15 -21 -15 -14 0 -19 -5 -17 -17 5 -25 29 -28 35 -4 3 12 12 21
19 21 8 0 14 5 14 10 0 20 -41 50 -69 50 -17 0 -33 5 -36 10 -3 6 -18 10 -33
9 -16 0 -21 -3 -12 -6z"/>
<path d="M15528 1533 c6 -2 18 -2 25 0 6 3 1 5 -13 5 -14 0 -19 -2 -12 -5z"/>
<path d="M1145 1509 c-4 -6 -4 -13 -1 -16 8 -8 36 5 36 17 0 13 -27 13 -35 -1z"/>
<path d="M1370 1510 c0 -14 26 -23 41 -15 8 6 7 10 -2 16 -19 12 -39 11 -39
-1z"/>
<path d="M3430 1510 c-12 -8 -9 -10 13 -10 16 0 26 4 22 10 -8 12 -16 12 -35
0z"/>
<path d="M16105 1510 c-3 -5 -1 -10 4 -10 6 0 11 5 11 10 0 6 -2 10 -4 10 -3
0 -8 -4 -11 -10z"/>
<path d="M15440 1500 c0 -5 7 -10 15 -10 8 0 15 5 15 10 0 6 -7 10 -15 10 -8
0 -15 -4 -15 -10z"/>
<path d="M16004 1496 c-7 -20 2 -46 16 -46 13 0 13 47 0 55 -6 3 -13 -1 -16
-9z"/>
<path d="M16558 1503 c7 -3 16 -2 19 1 4 3 -2 6 -13 5 -11 0 -14 -3 -6 -6z"/>
<path d="M17940 1500 c0 -5 5 -10 10 -10 6 0 10 5 10 10 0 6 -4 10 -10 10 -5
0 -10 -4 -10 -10z"/>
<path d="M1101 1483 c-25 -10 -61 -57 -58 -78 3 -30 22 -24 25 8 2 18 12 32
28 39 13 6 24 17 24 25 0 7 -1 13 -2 12 -2 0 -9 -3 -17 -6z"/>
<path d="M16657 1483 c-12 -11 -8 -23 8 -23 8 0 15 7 15 15 0 16 -12 20 -23 8z"/>
<path d="M17970 1480 c0 -5 9 -14 19 -20 34 -18 49 -39 44 -60 -5 -17 -11 -19
-47 -13 -22 3 -45 12 -49 19 -4 8 -14 14 -21 14 -8 0 -16 9 -19 20 -5 20 -27
28 -27 11 0 -12 44 -61 55 -61 4 0 13 -7 20 -16 21 -29 115 -11 115 21 0 16
-36 74 -55 87 -14 11 -35 10 -35 -2z"/>
<path d="M17321 1454 c0 -11 3 -14 6 -6 3 7 2 16 -1 19 -3 4 -6 -2 -5 -13z"/>
<path d="M1189 1427 c-19 -19 -50 -39 -69 -44 l-35 -9 28 -6 c17 -3 34 0 42 8
7 8 17 14 22 14 14 0 55 49 51 61 -2 7 -19 -3 -39 -24z"/>
<path d="M3700 1439 c0 -35 -21 -51 -62 -47 -29 3 -33 6 -31 31 1 20 -3 27
-16 27 -27 0 -32 -36 -10 -64 15 -19 27 -23 64 -22 40 1 48 5 65 32 18 27 18
33 5 50 -14 18 -14 18 -15 -7z"/>
<path d="M15382 1444 c-9 -17 -7 -26 11 -52 20 -29 25 -30 67 -25 56 7 70 18
70 53 0 23 -5 29 -31 34 -47 9 -59 7 -59 -8 0 -21 18 -30 34 -17 15 13 26 5
26 -20 0 -48 -85 -28 -98 23 -8 31 -9 32 -20 12z"/>
<path d="M2492 1433 c9 -10 19 -28 22 -41 10 -31 40 -46 66 -32 11 6 20 15 20
20 0 17 -32 40 -56 40 -14 0 -27 7 -30 15 -4 8 -13 15 -22 15 -14 0 -14 -2 0
-17z"/>
<path d="M16582 1435 c-7 -8 -21 -15 -31 -15 -40 0 -53 -52 -16 -66 19 -8 55
23 55 46 0 10 7 20 15 24 8 3 15 10 15 16 0 15 -23 12 -38 -5z"/>
<path d="M2097 1423 c-30 -8 -13 -28 27 -31 32 -3 37 -1 34 15 -3 18 -28 25
-61 16z"/>
<path d="M16947 1416 c-7 -18 1 -26 29 -26 28 0 42 19 23 31 -21 13 -46 11
-52 -5z"/>
<path d="M1240 1355 c0 -39 14 -47 24 -12 9 35 7 47 -9 47 -10 0 -15 -11 -15
-35z"/>
<path d="M2000 1380 c0 -5 5 -10 10 -10 6 0 10 -8 10 -19 0 -10 7 -24 15 -31
10 -9 15 -31 15 -73 l0 -60 -45 6 c-36 5 -45 4 -45 -8 0 -30 98 -14 122 20 15
20 8 82 -12 108 -11 14 -20 30 -20 35 0 5 -11 17 -25 26 -14 9 -25 12 -25 6z"/>
<path d="M17840 1366 c0 -14 5 -28 10 -31 6 -4 10 7 10 24 0 17 -4 31 -10 31
-5 0 -10 -11 -10 -24z"/>
<path d="M17870 1246 c0 -47 -3 -55 -22 -61 -20 -6 -21 -8 -5 -12 33 -9 65 54
53 102 -11 44 -26 27 -26 -29z"/>
<path d="M1304 1279 c-3 -6 -1 -14 5 -18 8 -5 9 -22 5 -50 -7 -41 -6 -43 17
-39 20 2 25 10 27 41 4 51 -34 98 -54 66z"/>
<path d="M17756 1271 c-23 -25 -18 -84 7 -89 21 -4 57 24 57 45 0 10 -6 12
-20 8 -14 -4 -20 -2 -20 8 0 9 5 17 12 19 12 4 3 28 -11 28 -4 0 -16 -9 -25
-19z"/>
<path d="M1210 1247 c0 -32 29 -89 43 -84 21 7 19 35 -2 42 -15 4 -21 15 -21
36 0 16 -4 29 -10 29 -5 0 -10 -11 -10 -23z"/>
<path d="M1967 1253 c-11 -11 -8 -21 9 -27 19 -7 47 12 38 25 -6 11 -38 12
-47 2z"/>
<path d="M17084 1249 c-8 -14 14 -29 33 -22 7 3 13 11 13 19 0 17 -36 19 -46
3z"/>
<path d="M17093 1193 c-39 -5 -44 -22 -8 -24 14 -1 31 -2 37 -3 7 -1 14 7 16
17 2 9 0 16 -5 15 -4 0 -23 -3 -40 -5z"/>
<path d="M7367 824 c-3 -4 7 -19 23 -34 l30 -28 0 -179 c0 -98 -4 -183 -8
-189 -4 -6 -17 -16 -30 -23 -43 -23 -10 -31 122 -31 115 0 140 3 182 21 63 28
83 54 84 106 0 35 -6 50 -36 83 l-36 39 22 31 c53 75 32 146 -57 185 -49 22
-70 25 -173 25 -64 0 -120 -3 -123 -6z m283 -61 c28 -31 31 -41 27 -76 -3 -22
-14 -48 -24 -59 -23 -22 -79 -33 -127 -24 l-36 7 0 82 c0 51 5 88 12 95 7 7
35 12 64 12 47 0 55 -3 84 -37z m-20 -208 c70 -36 90 -108 45 -158 -22 -23
-33 -27 -83 -27 -102 0 -102 0 -102 94 0 50 5 87 12 94 17 17 93 15 128 -3z"/>
<path d="M8070 816 c-14 -8 -37 -19 -52 -25 -39 -15 -85 -83 -99 -147 -17 -74
0 -164 39 -213 37 -47 123 -90 183 -90 63 -1 150 38 184 83 34 45 58 136 50
190 -14 91 -84 186 -137 186 -9 0 -21 7 -28 15 -16 19 -105 20 -140 1z m172
-58 c46 -52 63 -116 55 -210 -6 -71 -19 -101 -65 -150 -23 -25 -33 -28 -88
-28 -59 0 -63 1 -98 41 -49 53 -56 75 -56 170 0 90 13 129 60 182 30 35 35 37
93 37 60 0 63 -1 99 -42z"/>
<path d="M8500 816 c0 -7 9 -16 20 -19 31 -8 40 -49 40 -181 0 -68 5 -138 11
-157 44 -130 239 -161 340 -53 23 24 24 33 29 191 l5 165 33 27 c17 15 29 31
25 34 -8 9 -148 9 -156 1 -3 -4 7 -19 23 -34 l30 -28 0 -129 c0 -149 -11 -198
-52 -236 -39 -36 -120 -39 -163 -5 -46 36 -55 73 -55 228 0 137 1 142 25 166
14 14 25 29 25 34 0 6 -40 10 -90 10 -70 0 -90 -3 -90 -14z"/>
<path d="M9142 822 c-7 -5 -15 -25 -19 -45 -8 -54 17 -59 60 -13 36 38 81 48
105 24 9 -9 12 -68 12 -205 l0 -193 -25 -12 c-45 -20 -22 -33 68 -36 73 -2 87
0 87 13 0 8 -4 15 -10 15 -5 0 -19 9 -30 20 -19 19 -20 33 -20 199 0 198 4
211 61 211 21 0 41 -11 66 -35 43 -41 57 -41 61 4 6 59 0 61 -212 61 -105 0
-197 -4 -204 -8z"/>
<path d="M9690 815 c0 -8 7 -15 15 -15 34 0 45 -53 45 -225 0 -152 -2 -167
-20 -185 -11 -11 -24 -20 -30 -20 -5 0 -10 -7 -10 -15 0 -13 14 -15 87 -13 90
3 113 16 68 36 l-25 12 0 189 c0 159 3 192 16 205 8 9 20 16 25 16 5 0 9 7 9
15 0 12 -17 15 -90 15 -73 0 -90 -3 -90 -15z"/>
<path d="M10170 816 c-14 -7 -38 -19 -55 -27 -94 -45 -133 -224 -75 -339 22
-44 42 -61 105 -92 28 -13 79 -43 114 -66 78 -51 186 -88 227 -78 27 7 24 9
-51 45 -44 21 -86 45 -94 54 -17 21 -8 45 22 56 33 13 82 72 98 118 22 64 16
153 -14 214 -26 53 -77 99 -109 99 -9 0 -21 7 -28 15 -16 19 -105 20 -140 1z
m163 -48 c43 -49 59 -87 65 -154 7 -89 -12 -157 -58 -205 -34 -36 -41 -39 -90
-39 -107 0 -160 70 -160 209 0 92 12 130 60 184 30 35 35 37 94 37 57 0 64 -3
89 -32z"/>
<path d="M10640 815 c0 -8 7 -15 15 -15 30 0 40 -43 45 -196 5 -139 7 -153 29
-186 69 -100 253 -103 323 -6 21 30 23 46 28 191 5 158 5 159 33 182 43 38 35
45 -53 45 -64 0 -80 -3 -80 -15 0 -8 6 -15 14 -15 7 0 21 -11 30 -25 13 -19
16 -51 16 -148 0 -140 -13 -192 -57 -233 -25 -23 -34 -26 -90 -22 -54 3 -65 8
-85 33 -33 42 -36 56 -37 205 -1 152 3 177 30 185 10 4 19 13 19 21 0 11 -19
14 -90 14 -73 0 -90 -3 -90 -15z"/>
<path d="M11277 824 c-3 -4 7 -19 23 -34 l30 -28 0 -179 c0 -98 -4 -183 -8
-189 -4 -6 -18 -17 -31 -23 -46 -25 -5 -31 169 -29 l174 3 15 38 c19 50 4 65
-32 32 -35 -33 -68 -45 -125 -45 -91 0 -92 1 -92 94 0 50 5 87 12 94 19 19 92
15 121 -8 39 -31 47 -25 47 30 0 55 -4 57 -46 35 -30 -16 -73 -19 -111 -9 -22
6 -23 12 -23 88 0 50 5 87 12 94 7 7 38 12 69 12 52 0 61 -3 93 -35 20 -19 41
-35 46 -35 17 0 12 87 -6 94 -21 8 -329 8 -337 0z"/>
</g>
</svg>
